<?xml version="1.0" encoding="UTF-8"?>
<svg width="14px" height="16px" viewBox="0 0 14 16" version="1.1" xmlns="http://www.w3.org/2000/svg" xmlns:xlink="http://www.w3.org/1999/xlink">
    <title>C9F25F33-2233-4D58-8947-CCE3662B7389</title>
    <g id="Runner-Boy" stroke="none" stroke-width="1" fill="none" fill-rule="evenodd">
        <g id="6-RBHomePageAfterLogin@2x" transform="translate(-44.000000, -340.000000)" fill="#000000" fill-rule="nonzero" stroke="#FFFFFF" stroke-width="0.2">
            <g id="Group-2" transform="translate(25.000000, 203.000000)">
                <g id="Group-17" transform="translate(0.000000, 40.000000)">
                    <g id="Group-15" transform="translate(20.000000, 69.000000)">
                        <g id="account" transform="translate(0.000000, 29.000000)">
                            <path d="M10.2203256,7.1619223 C10.0825515,7.0228983 9.8795414,6.96802223 9.68924175,7.01836394 C9.4989421,7.06870565 9.35093128,7.2164405 9.30203853,7.4048452 C9.25314578,7.5932499 9.31097054,7.79304057 9.4533108,7.92750692 C10.3881655,8.83562971 10.9129293,10.0772991 10.9090679,11.3720454 C10.9090679,12.0306377 8.99676739,12.98743 6,12.98743 C3.00323054,12.98743 1.09093,12.0301531 1.09093,11.3709685 C1.08722033,10.0852934 1.60472862,8.85159454 2.52808721,7.94489922 C2.66879667,7.80946994 2.72483141,7.6097892 2.67477097,7.42218916 C2.62471054,7.23458912 2.47629508,7.08807577 2.28625953,7.03865692 C2.09622397,6.98923806 1.89395088,7.04455465 1.75676339,7.18346076 C0.627940623,8.29195771 -0.00465451548,9.80025256 0,11.3720454 C0,13.1207531 3.09110288,14.0643531 6,14.0643531 C8.90889506,14.0643531 12,13.1207531 12,11.3720454 C12.0048711,9.78942809 11.3633089,8.27167974 10.2203256,7.1619223 L10.2203256,7.1619223 Z" id="Path"></path>
                            <path d="M5.99999897,7.53846154 C8.10871313,7.53846154 9.81816372,5.85091944 9.81816372,3.76923077 C9.81816372,1.6875421 8.10871313,0 5.99999897,0 C3.8912848,0 2.18183422,1.6875421 2.18183422,3.76923077 C2.18426891,5.84992307 3.89229411,7.53605805 5.99999897,7.53846154 Z M5.99999897,1.07692308 C7.50622337,1.07692308 8.7272595,2.28231029 8.7272595,3.76923077 C8.7272595,5.25615125 7.50622337,6.46153846 5.99999897,6.46153846 C4.49377456,6.46153846 3.27273843,5.25615125 3.27273843,3.76923077 C3.27451177,2.28303602 4.49450972,1.07867369 5.99999897,1.07692308 Z" id="Shape"></path>
                        </g>
                    </g>
                </g>
            </g>
        </g>
    </g>
</svg>