<svg width="107" height="60" viewBox="0 0 107 60" fill="none" xmlns="http://www.w3.org/2000/svg">
<rect width="107" height="60" fill="white"/>
<path d="M43.457 46.5205L41.1035 53H40.1416L42.8516 45.8906H43.4717L43.457 46.5205ZM45.4297 53L43.0713 46.5205L43.0566 45.8906H43.6768L46.3965 53H45.4297ZM45.3076 50.3682V51.1396H41.3135V50.3682H45.3076ZM51.6602 52.2334V53H48.1055V52.2334H51.6602ZM48.291 45.8906V53H47.3486V45.8906H48.291ZM57.2559 52.2334V53H53.4912V52.2334H57.2559ZM53.6816 45.8906V53H52.7393V45.8906H53.6816ZM56.7578 48.9473V49.7139H53.4912V48.9473H56.7578ZM57.207 45.8906V46.6621H53.4912V45.8906H57.207ZM58.4229 45.8906H60.7764C61.3102 45.8906 61.7611 45.972 62.1289 46.1348C62.5 46.2975 62.7816 46.5384 62.9736 46.8574C63.1689 47.1732 63.2666 47.5622 63.2666 48.0244C63.2666 48.3499 63.1999 48.6478 63.0664 48.918C62.9362 49.1849 62.7474 49.4128 62.5 49.6016C62.2559 49.7871 61.9629 49.9255 61.6211 50.0166L61.3574 50.1191H59.1455L59.1357 49.3525H60.8057C61.1442 49.3525 61.4258 49.2939 61.6504 49.1768C61.875 49.0563 62.0443 48.8952 62.1582 48.6934C62.2721 48.4915 62.3291 48.2686 62.3291 48.0244C62.3291 47.751 62.2754 47.5117 62.168 47.3066C62.0605 47.1016 61.8913 46.9437 61.6602 46.833C61.4323 46.7191 61.1377 46.6621 60.7764 46.6621H59.3652V53H58.4229V45.8906ZM62.5781 53L60.8496 49.7773L61.8311 49.7725L63.584 52.9414V53H62.5781ZM66.8213 45.8906V53H65.8936V45.8906H66.8213ZM69.1064 45.8906V46.6621H63.6133V45.8906H69.1064ZM73.8721 51.2031C73.8721 51.0371 73.846 50.8906 73.7939 50.7637C73.7451 50.6335 73.6572 50.5163 73.5303 50.4121C73.4066 50.3079 73.234 50.2087 73.0127 50.1143C72.7946 50.0199 72.5179 49.9238 72.1826 49.8262C71.8311 49.722 71.5137 49.6064 71.2305 49.4795C70.9473 49.3493 70.7048 49.2012 70.5029 49.0352C70.3011 48.8691 70.1465 48.6787 70.0391 48.4639C69.9316 48.249 69.8779 48.0033 69.8779 47.7266C69.8779 47.4499 69.9349 47.1943 70.0488 46.96C70.1628 46.7256 70.3255 46.5221 70.5371 46.3496C70.752 46.1738 71.0075 46.0371 71.3037 45.9395C71.5999 45.8418 71.9303 45.793 72.2949 45.793C72.8288 45.793 73.2812 45.8955 73.6523 46.1006C74.0267 46.3024 74.3115 46.5677 74.5068 46.8965C74.7021 47.222 74.7998 47.5703 74.7998 47.9414H73.8623C73.8623 47.6745 73.8053 47.4385 73.6914 47.2334C73.5775 47.0251 73.4049 46.8623 73.1738 46.7451C72.9427 46.6247 72.6497 46.5645 72.2949 46.5645C71.9596 46.5645 71.6829 46.6149 71.4648 46.7158C71.2467 46.8167 71.084 46.9535 70.9766 47.126C70.8724 47.2985 70.8203 47.4954 70.8203 47.7168C70.8203 47.8665 70.8512 48.0033 70.9131 48.127C70.9782 48.2474 71.0775 48.3597 71.2109 48.4639C71.3477 48.568 71.5202 48.6641 71.7285 48.752C71.9401 48.8398 72.1924 48.9245 72.4854 49.0059C72.889 49.1198 73.2373 49.2467 73.5303 49.3867C73.8232 49.5267 74.0641 49.6846 74.2529 49.8604C74.445 50.0329 74.5866 50.2298 74.6777 50.4512C74.7721 50.6693 74.8193 50.9167 74.8193 51.1934C74.8193 51.4831 74.7607 51.7451 74.6436 51.9795C74.5264 52.2139 74.3587 52.4141 74.1406 52.5801C73.9225 52.7461 73.6605 52.8747 73.3545 52.9658C73.0518 53.0537 72.7132 53.0977 72.3389 53.0977C72.0101 53.0977 71.6862 53.0521 71.3672 52.9609C71.0514 52.8698 70.7633 52.7331 70.5029 52.5508C70.2458 52.3685 70.0391 52.1439 69.8828 51.877C69.7298 51.6068 69.6533 51.2943 69.6533 50.9395H70.5908C70.5908 51.1836 70.638 51.3936 70.7324 51.5693C70.8268 51.7419 70.9554 51.8851 71.1182 51.999C71.2842 52.113 71.4714 52.1976 71.6797 52.2529C71.8913 52.305 72.111 52.3311 72.3389 52.3311C72.6676 52.3311 72.946 52.2855 73.1738 52.1943C73.4017 52.1032 73.5742 51.973 73.6914 51.8037C73.8118 51.6344 73.8721 51.4342 73.8721 51.2031Z" fill="#666666"/>
<path d="M65.708 37.9756H45.2916C44.3052 37.9756 43.4295 37.4665 43.1177 36.7118C42.8058 35.957 43.1279 35.126 43.9171 34.6489L44.9465 34.0262C45.3339 33.7927 45.5938 33.4471 45.6715 33.0621L46.9629 26.7392C47.6145 23.3421 51.2409 20.8359 55.5031 20.8373C59.7654 20.8386 63.3893 23.3471 64.0375 26.7447L65.3281 33.0621C65.4058 33.4471 65.6657 33.7927 66.0531 34.0262L67.0827 34.6489C67.8722 35.1261 68.1942 35.9572 67.8823 36.712C67.5703 37.4668 66.6943 37.9759 65.7078 37.9756H65.708ZM55.5007 21.8457C51.8477 21.8315 48.7363 23.9837 48.1974 26.8977L46.905 33.2259C46.7753 33.8674 46.3421 34.4433 45.6966 34.8324L44.6669 35.4553C44.3081 35.6723 44.1617 36.05 44.3035 36.3931C44.4453 36.7362 44.8435 36.9675 45.2919 36.9675H65.7083C66.1566 36.9675 66.5546 36.7362 66.6964 36.3932C66.8382 36.0502 66.6919 35.6725 66.3333 35.4556L65.3033 34.8324C64.6577 34.4433 64.2245 33.8674 64.0949 33.2259L62.803 26.9031C62.2667 23.9874 59.1554 21.8326 55.5007 21.8457Z" fill="#666666"/>
<path d="M57.3747 21.2058C57.0296 21.2058 56.7497 20.9801 56.7497 20.7018V20.0162C56.7497 19.4595 56.1901 19.0081 55.4998 19.0081C54.8094 19.0081 54.2498 19.4595 54.2498 20.0162V20.7018C54.2498 20.9801 53.97 21.2058 53.6248 21.2058C53.2797 21.2058 52.9998 20.9801 52.9998 20.7018V20.0162C52.9998 18.9027 54.1191 18 55.4998 18C56.8805 18 57.9997 18.9027 57.9997 20.0162V20.7018C57.9997 20.9801 57.7199 21.2058 57.3747 21.2058Z" fill="#666666"/>
<path d="M55.4998 41C53.0847 40.9978 51.1276 39.4194 51.1249 37.4716C51.1249 37.1932 51.4047 36.9675 51.7499 36.9675C52.095 36.9675 52.3749 37.1932 52.3749 37.4716C52.3749 38.8635 53.7739 39.9919 55.4998 39.9919C57.2256 39.9919 58.6247 38.8635 58.6247 37.4716C58.6247 37.1932 58.9045 36.9675 59.2497 36.9675C59.5949 36.9675 59.8747 37.1932 59.8747 37.4716C59.872 39.4194 57.9149 40.9978 55.4998 41Z" fill="#666666"/>
</svg>
