<svg width="108" height="60" viewBox="0 0 108 60" fill="none" xmlns="http://www.w3.org/2000/svg">
<path d="M0 0C40.3499 21.2627 64.0204 21.001 108 0V60H0V0Z" fill="white"/>
<path d="M68.708 38.9756H48.2916C47.3052 38.9756 46.4295 38.4665 46.1177 37.7118C45.8058 36.957 46.1279 36.126 46.9171 35.6489L47.9465 35.0262C48.3339 34.7927 48.5938 34.4471 48.6715 34.0621L49.9629 27.7392C50.6145 24.3421 54.2409 21.8359 58.5031 21.8373C62.7654 21.8386 66.3893 24.3471 67.0375 27.7447L68.3281 34.0621C68.4058 34.4471 68.6657 34.7927 69.0531 35.0262L70.0827 35.6489C70.8722 36.1261 71.1942 36.9572 70.8823 37.712C70.5703 38.4668 69.6943 38.9759 68.7078 38.9756H68.708ZM58.5007 22.8457C54.8477 22.8315 51.7363 24.9837 51.1974 27.8977L49.905 34.2259C49.7753 34.8674 49.3421 35.4433 48.6966 35.8324L47.6669 36.4553C47.3081 36.6723 47.1617 37.05 47.3035 37.3931C47.4453 37.7362 47.8435 37.9675 48.2919 37.9675H68.7083C69.1566 37.9675 69.5546 37.7362 69.6964 37.3932C69.8382 37.0502 69.6919 36.6725 69.3333 36.4556L68.3033 35.8324C67.6577 35.4433 67.2245 34.8674 67.0949 34.2259L65.803 27.9031C65.2667 24.9874 62.1554 22.8326 58.5007 22.8457Z" fill="#5C4FA6"/>
<path d="M60.3747 22.2058C60.0296 22.2058 59.7497 21.9801 59.7497 21.7018V21.0162C59.7497 20.4595 59.1901 20.0081 58.4998 20.0081C57.8094 20.0081 57.2498 20.4595 57.2498 21.0162V21.7018C57.2498 21.9801 56.97 22.2058 56.6248 22.2058C56.2797 22.2058 55.9998 21.9801 55.9998 21.7018V21.0162C55.9998 19.9027 57.1191 19 58.4998 19C59.8805 19 60.9997 19.9027 60.9997 21.0162V21.7018C60.9997 21.9801 60.7199 22.2058 60.3747 22.2058Z" fill="#5C4FA6"/>
<path d="M58.4998 42C56.0847 41.9978 54.1276 40.4194 54.1249 38.4716C54.1249 38.1932 54.4047 37.9675 54.7499 37.9675C55.095 37.9675 55.3749 38.1932 55.3749 38.4716C55.3749 39.8635 56.7739 40.9919 58.4998 40.9919C60.2256 40.9919 61.6247 39.8635 61.6247 38.4716C61.6247 38.1932 61.9045 37.9675 62.2497 37.9675C62.5949 37.9675 62.8747 38.1932 62.8747 38.4716C62.872 40.4194 60.9149 41.9978 58.4998 42Z" fill="#5C4FA6"/>
<path d="M46.457 47.5205L44.1035 54H43.1416L45.8516 46.8906H46.4717L46.457 47.5205ZM48.4297 54L46.0713 47.5205L46.0566 46.8906H46.6768L49.3965 54H48.4297ZM48.3076 51.3682V52.1396H44.3135V51.3682H48.3076ZM54.6602 53.2334V54H51.1055V53.2334H54.6602ZM51.291 46.8906V54H50.3486V46.8906H51.291ZM60.2559 53.2334V54H56.4912V53.2334H60.2559ZM56.6816 46.8906V54H55.7393V46.8906H56.6816ZM59.7578 49.9473V50.7139H56.4912V49.9473H59.7578ZM60.207 46.8906V47.6621H56.4912V46.8906H60.207ZM61.4229 46.8906H63.7764C64.3102 46.8906 64.7611 46.972 65.1289 47.1348C65.5 47.2975 65.7816 47.5384 65.9736 47.8574C66.1689 48.1732 66.2666 48.5622 66.2666 49.0244C66.2666 49.3499 66.1999 49.6478 66.0664 49.918C65.9362 50.1849 65.7474 50.4128 65.5 50.6016C65.2559 50.7871 64.9629 50.9255 64.6211 51.0166L64.3574 51.1191H62.1455L62.1357 50.3525H63.8057C64.1442 50.3525 64.4258 50.2939 64.6504 50.1768C64.875 50.0563 65.0443 49.8952 65.1582 49.6934C65.2721 49.4915 65.3291 49.2686 65.3291 49.0244C65.3291 48.751 65.2754 48.5117 65.168 48.3066C65.0605 48.1016 64.8913 47.9437 64.6602 47.833C64.4323 47.7191 64.1377 47.6621 63.7764 47.6621H62.3652V54H61.4229V46.8906ZM65.5781 54L63.8496 50.7773L64.8311 50.7725L66.584 53.9414V54H65.5781ZM69.8213 46.8906V54H68.8936V46.8906H69.8213ZM72.1064 46.8906V47.6621H66.6133V46.8906H72.1064ZM76.8721 52.2031C76.8721 52.0371 76.846 51.8906 76.7939 51.7637C76.7451 51.6335 76.6572 51.5163 76.5303 51.4121C76.4066 51.3079 76.234 51.2087 76.0127 51.1143C75.7946 51.0199 75.5179 50.9238 75.1826 50.8262C74.8311 50.722 74.5137 50.6064 74.2305 50.4795C73.9473 50.3493 73.7048 50.2012 73.5029 50.0352C73.3011 49.8691 73.1465 49.6787 73.0391 49.4639C72.9316 49.249 72.8779 49.0033 72.8779 48.7266C72.8779 48.4499 72.9349 48.1943 73.0488 47.96C73.1628 47.7256 73.3255 47.5221 73.5371 47.3496C73.752 47.1738 74.0075 47.0371 74.3037 46.9395C74.5999 46.8418 74.9303 46.793 75.2949 46.793C75.8288 46.793 76.2812 46.8955 76.6523 47.1006C77.0267 47.3024 77.3115 47.5677 77.5068 47.8965C77.7021 48.222 77.7998 48.5703 77.7998 48.9414H76.8623C76.8623 48.6745 76.8053 48.4385 76.6914 48.2334C76.5775 48.0251 76.4049 47.8623 76.1738 47.7451C75.9427 47.6247 75.6497 47.5645 75.2949 47.5645C74.9596 47.5645 74.6829 47.6149 74.4648 47.7158C74.2467 47.8167 74.084 47.9535 73.9766 48.126C73.8724 48.2985 73.8203 48.4954 73.8203 48.7168C73.8203 48.8665 73.8512 49.0033 73.9131 49.127C73.9782 49.2474 74.0775 49.3597 74.2109 49.4639C74.3477 49.568 74.5202 49.6641 74.7285 49.752C74.9401 49.8398 75.1924 49.9245 75.4854 50.0059C75.889 50.1198 76.2373 50.2467 76.5303 50.3867C76.8232 50.5267 77.0641 50.6846 77.2529 50.8604C77.445 51.0329 77.5866 51.2298 77.6777 51.4512C77.7721 51.6693 77.8193 51.9167 77.8193 52.1934C77.8193 52.4831 77.7607 52.7451 77.6436 52.9795C77.5264 53.2139 77.3587 53.4141 77.1406 53.5801C76.9225 53.7461 76.6605 53.8747 76.3545 53.9658C76.0518 54.0537 75.7132 54.0977 75.3389 54.0977C75.0101 54.0977 74.6862 54.0521 74.3672 53.9609C74.0514 53.8698 73.7633 53.7331 73.5029 53.5508C73.2458 53.3685 73.0391 53.1439 72.8828 52.877C72.7298 52.6068 72.6533 52.2943 72.6533 51.9395H73.5908C73.5908 52.1836 73.638 52.3936 73.7324 52.5693C73.8268 52.7419 73.9554 52.8851 74.1182 52.999C74.2842 53.113 74.4714 53.1976 74.6797 53.2529C74.8913 53.305 75.111 53.3311 75.3389 53.3311C75.6676 53.3311 75.946 53.2855 76.1738 53.1943C76.4017 53.1032 76.5742 52.973 76.6914 52.8037C76.8118 52.6344 76.8721 52.4342 76.8721 52.2031Z" fill="#5C4FA6"/>
<line y1="59.25" x2="108" y2="59.25" stroke="#5C4FA6" stroke-width="1.5"/>
</svg>
