<?xml version="1.0" encoding="UTF-8"?>
<svg width="18px" height="20px" viewBox="0 0 18 20" version="1.1" xmlns="http://www.w3.org/2000/svg" xmlns:xlink="http://www.w3.org/1999/xlink">
    <title>F41FB2B8-86A0-4318-9CB4-12DEB967541A</title>
    <g id="Runner-Boy" stroke="none" stroke-width="1" fill="none" fill-rule="evenodd">
        <g id="6-RBHomePageAfterLogin@2x" transform="translate(-251.000000, -1067.000000)" fill="#666666" fill-rule="nonzero">
            <g id="Group-30" transform="translate(0.000000, 1052.000000)">
                <g id="Group-5" transform="translate(208.000000, 0.000000)">
                    <g id="Group-41-Copy-3" transform="translate(33.500000, 15.000000)">
                        <g id="Group-29-Copy" transform="translate(9.500000, 0.000000)">
                            <path d="M16.3497385,17.3701299 L1.64994627,17.3701299 C0.939738764,17.3701299 0.309227626,16.9274253 0.0847137964,16.2711238 C-0.139800033,15.6148223 0.0920713731,14.8922184 0.660330361,14.4772727 L1.40146232,13.9358263 C1.68037863,13.7328034 1.86751369,13.4322633 1.92344962,13.0975114 L2.85330699,7.59932955 C3.32240575,4.64527881 5.93342473,2.4660301 9.00224119,2.46721129 C12.0710577,2.46839343 14.6803069,4.64965224 15.1470078,7.60406331 L16.0762352,13.0975114 C16.1321711,13.4322633 16.3193061,13.7328034 16.5982224,13.9358263 L17.3395794,14.4772727 C17.9079506,14.8922295 18.1398494,15.6149532 17.9152315,16.2713202 C17.6906136,16.9276871 17.0599076,17.3703375 16.3496035,17.3701299 L16.3497385,17.3701299 Z M9.00051737,3.34409426 C6.37033046,3.33172312 4.13016628,5.20320664 3.74212535,7.73713474 L2.811593,13.2399627 C2.71823448,13.7977854 2.40633161,14.2985712 1.94153918,14.6369058 L1.20018222,15.1785714 C0.941831669,15.3671881 0.836423124,15.6956989 0.938522167,15.9940475 C1.04062121,16.2923962 1.32730576,16.4935065 1.65017127,16.4935065 L16.3499635,16.4935065 C16.6727351,16.4935065 16.9593083,16.292369 17.061393,15.9941121 C17.1634776,15.6958553 17.0581659,15.3674329 16.7999525,15.1787906 L16.0583706,14.6369058 C15.5935782,14.2985712 15.2816753,13.7977854 15.1883168,13.2399627 L14.2581894,7.74182468 C13.8720581,5.20645282 11.6318941,3.33271494 9.00051737,3.34409426 Z" id="Shape"></path>
                            <path d="M10.3498095,2.78766234 C10.1012874,2.78766234 9.89982048,2.59142351 9.89982048,2.34935065 L9.89982048,1.75324675 C9.89982048,1.26910103 9.49688656,0.876623377 8.99984239,0.876623377 C8.50279821,0.876623377 8.09986429,1.26910103 8.09986429,1.75324675 L8.09986429,2.34935065 C8.09986429,2.59142351 7.89839733,2.78766234 7.64987524,2.78766234 C7.40135315,2.78766234 7.19988619,2.59142351 7.19988619,2.34935065 L7.19988619,1.75324675 C7.19988619,0.784955309 8.00575403,0 8.99984239,0 C9.99393074,0 10.7997986,0.784955309 10.7997986,1.75324675 L10.7997986,2.34935065 C10.7997986,2.59142351 10.5983316,2.78766234 10.3498095,2.78766234 Z" id="Path"></path>
                            <path d="M8.99984239,20 C7.26098963,19.9981158 5.8518534,18.6255472 5.84991905,16.9318182 C5.84991905,16.6897453 6.05138601,16.4935065 6.2999081,16.4935065 C6.54843019,16.4935065 6.74989715,16.6897453 6.74989715,16.9318182 C6.74989715,18.1421825 7.75723194,19.1233766 8.99984239,19.1233766 C10.2424528,19.1233766 11.2497876,18.1421825 11.2497876,16.9318182 C11.2497876,16.6897453 11.4512546,16.4935065 11.6997767,16.4935065 C11.9482988,16.4935065 12.1497657,16.6897453 12.1497657,16.9318182 C12.1478314,18.6255472 10.7386951,19.9981158 8.99984239,20 L8.99984239,20 Z" id="Path"></path>
                        </g>
                    </g>
                </g>
            </g>
        </g>
    </g>
</svg>