<?xml version="1.0" encoding="UTF-8"?>
<svg width="13px" height="20px" viewBox="0 0 13 20" version="1.1" xmlns="http://www.w3.org/2000/svg" xmlns:xlink="http://www.w3.org/1999/xlink">
    <title>49D0FA4C-B0C8-457B-A91A-4211B9475AE7</title>
    <g id="Runner-Boy" stroke="none" stroke-width="1" fill="none" fill-rule="evenodd">
        <g id="7-RBOrderDetails@2x" transform="translate(-20.000000, -70.000000)" fill="#FFFFFF" fill-rule="nonzero">
            <g id="Group-9" transform="translate(-1.000000, 46.000000)">
                <g id="Group-8" transform="translate(15.000000, 16.000000)">
                    <g id="next-(1)" transform="translate(12.286677, 17.979797) scale(-1, 1) translate(-12.286677, -17.979797) translate(6.020548, 8.000000)">
                        <path d="M12.1919878,9.20097363 L2.69905984,0.318864097 C2.4795,0.11326572 2.18640669,0 1.87388945,0 C1.56137221,0 1.2682789,0.11326572 1.04871907,0.318864097 L0.349630832,0.972819473 C-0.105270791,1.39894523 -0.105270791,2.0915213 0.349630832,2.51699797 L8.32107505,9.97565923 L0.340786004,17.4425963 C0.121226166,17.6481947 0,17.9222718 0,18.2145233 C0,18.5070994 0.121226166,18.7811765 0.340786004,18.9869371 L1.03987424,19.6407302 C1.25960751,19.8463286 1.55252738,19.9595943 1.86504462,19.9595943 C2.17756187,19.9595943 2.47065517,19.8463286 2.69021501,19.6407302 L12.1919878,10.7505071 C12.412068,10.5442596 12.5329473,10.2688844 12.5322565,9.97614604 C12.5329473,9.68227181 12.412068,9.40705882 12.1919878,9.20097363 Z" id="Path"></path>
                    </g>
                </g>
            </g>
        </g>
    </g>
</svg>