<svg width="108" height="60" viewBox="0 0 108 60" fill="none" xmlns="http://www.w3.org/2000/svg">
<path d="M0 0C40.3499 21.2627 64.0204 21.001 108 0V60H0V0Z" fill="white"/>
<path d="M63.984 20.3059V19.7139C63.9815 18.7684 63.2156 18.0025 62.2701 18C61.3239 18.001 60.5572 18.7678 60.5562 19.7139V20.2781H58.8021V19.7139C58.8021 18.7684 58.0364 18.0015 57.0909 18C56.1448 18.0012 55.3782 18.7678 55.377 19.7139V20.2781H53.623V19.7139C53.623 19.1021 53.2966 18.5367 52.7667 18.2308C52.2368 17.9249 51.584 17.9249 51.0541 18.2308C50.5243 18.5367 50.1979 19.1021 50.1979 19.7139V20.2781H48.4439V19.7139C48.4414 18.7684 47.6755 18.0025 46.7299 18C45.7839 18.0012 45.0172 18.7678 45.016 19.7139V20.3059C43.2958 20.518 42.0027 21.978 42 23.7112V39.5668C42.0022 41.462 43.538 42.9978 45.4332 43H63.5668C65.462 42.9978 66.9978 41.462 67 39.5668V23.7112C66.9973 21.978 65.7042 20.518 63.984 20.3059ZM61.492 19.7139C61.4926 19.2844 61.8406 18.9364 62.2701 18.9358C62.6987 18.9385 63.0455 19.2853 63.0481 19.7139V21.7781C63.0481 22.2078 62.6998 22.5561 62.2701 22.5561C61.8403 22.5561 61.492 22.2078 61.492 21.7781V19.7139ZM56.3128 19.7139C56.3133 19.2844 56.6614 18.9363 57.0909 18.9358C57.5196 18.9372 57.8665 19.2852 57.8663 19.7139V21.7781C57.8663 22.2071 57.5186 22.5548 57.0896 22.5548C56.6606 22.5548 56.3128 22.2071 56.3128 21.7781V19.7139ZM51.1337 19.7139C51.1337 19.2849 51.4814 18.9372 51.9104 18.9372C52.3394 18.9372 52.6872 19.2849 52.6872 19.7139V21.7781C52.6872 22.2071 52.3394 22.5548 51.9104 22.5548C51.4814 22.5548 51.1337 22.2071 51.1337 21.7781V19.7139ZM45.9519 19.7139C45.9523 19.2844 46.3004 18.9363 46.7299 18.9358C47.1586 18.9385 47.5054 19.2853 47.508 19.7139V21.7781C47.508 22.2078 47.1597 22.5561 46.7299 22.5561C46.3002 22.5561 45.9519 22.2078 45.9519 21.7781V19.7139ZM45.016 21.2516V21.7781C45.016 22.7246 45.7834 23.492 46.7299 23.492C47.6765 23.492 48.4439 22.7246 48.4439 21.7781V21.2139H50.1979V21.7781C50.1979 22.7239 50.9646 23.4906 51.9104 23.4906C52.8563 23.4906 53.623 22.7239 53.623 21.7781V21.2139H55.377V21.7781C55.377 22.7239 56.1437 23.4906 57.0896 23.4906C58.0354 23.4906 58.8021 22.7239 58.8021 21.7781V21.2139H60.5562V21.7781C60.5562 22.7246 61.3235 23.492 62.2701 23.492C63.2166 23.492 63.984 22.7246 63.984 21.7781V21.2516C65.1838 21.4557 66.0621 22.4944 66.0642 23.7115V25.1198H42.9358V23.7112C42.938 22.4943 43.8163 21.4557 45.016 21.2516ZM63.5668 42.0642H45.4332C44.0546 42.0626 42.9374 40.9454 42.9358 39.5668V26.0561H66.0642V39.5668C66.0626 40.9454 64.9454 42.0626 63.5668 42.0642Z" fill="#5C4FA6"/>
<path d="M58.4014 30.785L54.0549 35.1135L51.9753 33.0414C51.595 32.6756 50.9907 32.6809 50.617 33.0534C50.2433 33.4259 50.2382 34.0281 50.6055 34.4068L53.37 37.1614C53.5517 37.3426 53.7982 37.4444 54.0552 37.4444C54.3123 37.4444 54.5587 37.3426 54.7404 37.1614L59.7717 32.1482C60.1502 31.7712 60.1502 31.1598 59.7717 30.7828C59.3933 30.4057 58.7798 30.4057 58.4014 30.7828V30.785Z" fill="#5C4FA6" stroke="white" stroke-width="0.5"/>
<path d="M36.3594 51.6748H34.5576L34.5479 50.918H36.1836C36.4538 50.918 36.6898 50.8724 36.8916 50.7812C37.0934 50.6901 37.2497 50.5599 37.3604 50.3906C37.4743 50.2181 37.5312 50.013 37.5312 49.7754C37.5312 49.515 37.4808 49.3034 37.3799 49.1406C37.2822 48.9746 37.1309 48.8542 36.9258 48.7793C36.724 48.7012 36.4668 48.6621 36.1543 48.6621H34.7676V55H33.8252V47.8906H36.1543C36.5189 47.8906 36.8444 47.9281 37.1309 48.0029C37.4173 48.0745 37.6598 48.1885 37.8584 48.3447C38.0602 48.4977 38.2132 48.693 38.3174 48.9307C38.4215 49.1683 38.4736 49.4531 38.4736 49.7852C38.4736 50.0781 38.3988 50.3434 38.249 50.5811C38.0993 50.8154 37.891 51.0075 37.624 51.1572C37.3604 51.307 37.0511 51.403 36.6963 51.4453L36.3594 51.6748ZM36.3154 55H34.1865L34.7188 54.2334H36.3154C36.6149 54.2334 36.8688 54.1813 37.0771 54.0771C37.2887 53.973 37.4499 53.8265 37.5605 53.6377C37.6712 53.4456 37.7266 53.2194 37.7266 52.959C37.7266 52.6953 37.6794 52.4674 37.585 52.2754C37.4906 52.0833 37.3424 51.9352 37.1406 51.8311C36.9388 51.7269 36.6784 51.6748 36.3594 51.6748H35.0166L35.0264 50.918H36.8623L37.0625 51.1914C37.4043 51.2207 37.694 51.3184 37.9316 51.4844C38.1693 51.6471 38.3499 51.8555 38.4736 52.1094C38.6006 52.3633 38.6641 52.6432 38.6641 52.9492C38.6641 53.3919 38.5664 53.7663 38.3711 54.0723C38.179 54.375 37.9072 54.6061 37.5557 54.7656C37.2041 54.9219 36.7907 55 36.3154 55ZM45.5293 51.2207V51.6699C45.5293 52.2038 45.4626 52.6823 45.3291 53.1055C45.1956 53.5286 45.0036 53.8883 44.7529 54.1846C44.5023 54.4808 44.2012 54.707 43.8496 54.8633C43.5013 55.0195 43.1107 55.0977 42.6777 55.0977C42.2578 55.0977 41.8721 55.0195 41.5205 54.8633C41.1722 54.707 40.8695 54.4808 40.6123 54.1846C40.3584 53.8883 40.1615 53.5286 40.0215 53.1055C39.8815 52.6823 39.8115 52.2038 39.8115 51.6699V51.2207C39.8115 50.6868 39.8799 50.21 40.0166 49.79C40.1566 49.3669 40.3535 49.0072 40.6074 48.7109C40.8613 48.4115 41.1624 48.1836 41.5107 48.0273C41.8623 47.8711 42.248 47.793 42.668 47.793C43.1009 47.793 43.4915 47.8711 43.8398 48.0273C44.1914 48.1836 44.4925 48.4115 44.7432 48.7109C44.9971 49.0072 45.1908 49.3669 45.3242 49.79C45.4609 50.21 45.5293 50.6868 45.5293 51.2207ZM44.5967 51.6699V51.2109C44.5967 50.7878 44.5527 50.4134 44.4648 50.0879C44.3802 49.7624 44.2549 49.4889 44.0889 49.2676C43.9229 49.0462 43.7194 48.8786 43.4785 48.7646C43.2409 48.6507 42.9707 48.5938 42.668 48.5938C42.375 48.5938 42.1097 48.6507 41.8721 48.7646C41.6377 48.8786 41.4359 49.0462 41.2666 49.2676C41.1006 49.4889 40.972 49.7624 40.8809 50.0879C40.7897 50.4134 40.7441 50.7878 40.7441 51.2109V51.6699C40.7441 52.0964 40.7897 52.474 40.8809 52.8027C40.972 53.1283 41.1022 53.4033 41.2715 53.6279C41.444 53.8493 41.6475 54.0169 41.8818 54.1309C42.1195 54.2448 42.3848 54.3018 42.6777 54.3018C42.9837 54.3018 43.2555 54.2448 43.4932 54.1309C43.7308 54.0169 43.931 53.8493 44.0938 53.6279C44.2598 53.4033 44.3851 53.1283 44.4697 52.8027C44.5544 52.474 44.5967 52.0964 44.5967 51.6699ZM52.4141 51.2207V51.6699C52.4141 52.2038 52.3473 52.6823 52.2139 53.1055C52.0804 53.5286 51.8883 53.8883 51.6377 54.1846C51.387 54.4808 51.0859 54.707 50.7344 54.8633C50.3861 55.0195 49.9954 55.0977 49.5625 55.0977C49.1426 55.0977 48.7568 55.0195 48.4053 54.8633C48.057 54.707 47.7542 54.4808 47.4971 54.1846C47.2432 53.8883 47.0462 53.5286 46.9062 53.1055C46.7663 52.6823 46.6963 52.2038 46.6963 51.6699V51.2207C46.6963 50.6868 46.7646 50.21 46.9014 49.79C47.0413 49.3669 47.2383 49.0072 47.4922 48.7109C47.7461 48.4115 48.0472 48.1836 48.3955 48.0273C48.7471 47.8711 49.1328 47.793 49.5527 47.793C49.9857 47.793 50.3763 47.8711 50.7246 48.0273C51.0762 48.1836 51.3773 48.4115 51.6279 48.7109C51.8818 49.0072 52.0755 49.3669 52.209 49.79C52.3457 50.21 52.4141 50.6868 52.4141 51.2207ZM51.4814 51.6699V51.2109C51.4814 50.7878 51.4375 50.4134 51.3496 50.0879C51.265 49.7624 51.1396 49.4889 50.9736 49.2676C50.8076 49.0462 50.6042 48.8786 50.3633 48.7646C50.1257 48.6507 49.8555 48.5938 49.5527 48.5938C49.2598 48.5938 48.9945 48.6507 48.7568 48.7646C48.5225 48.8786 48.3206 49.0462 48.1514 49.2676C47.9854 49.4889 47.8568 49.7624 47.7656 50.0879C47.6745 50.4134 47.6289 50.7878 47.6289 51.2109V51.6699C47.6289 52.0964 47.6745 52.474 47.7656 52.8027C47.8568 53.1283 47.987 53.4033 48.1562 53.6279C48.3288 53.8493 48.5322 54.0169 48.7666 54.1309C49.0042 54.2448 49.2695 54.3018 49.5625 54.3018C49.8685 54.3018 50.1403 54.2448 50.3779 54.1309C50.6156 54.0169 50.8158 53.8493 50.9785 53.6279C51.1445 53.4033 51.2699 53.1283 51.3545 52.8027C51.4391 52.474 51.4814 52.0964 51.4814 51.6699ZM54.7676 47.8906V55H53.8252V47.8906H54.7676ZM59.0596 47.8906L56.1055 51.2061L54.4453 52.9297L54.2891 51.9238L55.5391 50.5469L57.9268 47.8906H59.0596ZM58.1514 55L55.5195 51.5332L56.0811 50.7861L59.2744 55H58.1514ZM61.1152 47.8906V55H60.1729V47.8906H61.1152ZM68.2979 47.8906V55H67.3506L63.7715 49.5166V55H62.8291V47.8906H63.7715L67.3652 53.3887V47.8906H68.2979ZM75.2217 51.46V54.0625C75.1338 54.1927 74.9938 54.3392 74.8018 54.502C74.6097 54.6615 74.3444 54.8014 74.0059 54.9219C73.6706 55.0391 73.2376 55.0977 72.707 55.0977C72.2741 55.0977 71.8753 55.0228 71.5107 54.873C71.1494 54.7201 70.8353 54.4987 70.5684 54.209C70.3047 53.916 70.0996 53.5612 69.9531 53.1445C69.8099 52.7246 69.7383 52.2493 69.7383 51.7188V51.167C69.7383 50.6364 69.8001 50.1628 69.9238 49.7461C70.0508 49.3294 70.2363 48.9762 70.4805 48.6865C70.7246 48.3936 71.0241 48.1722 71.3789 48.0225C71.7337 47.8695 72.1406 47.793 72.5996 47.793C73.1432 47.793 73.5973 47.8874 73.9619 48.0762C74.3298 48.2617 74.6162 48.5189 74.8213 48.8477C75.0296 49.1764 75.1631 49.5508 75.2217 49.9707H74.2793C74.237 49.7135 74.1523 49.4792 74.0254 49.2676C73.9017 49.056 73.7243 48.8867 73.4932 48.7598C73.262 48.6296 72.9642 48.5645 72.5996 48.5645C72.2708 48.5645 71.986 48.6247 71.7451 48.7451C71.5042 48.8656 71.3057 49.0381 71.1494 49.2627C70.9932 49.4873 70.876 49.7591 70.7979 50.0781C70.723 50.3971 70.6855 50.7568 70.6855 51.1572V51.7188C70.6855 52.1289 70.7327 52.4951 70.8271 52.8174C70.9248 53.1396 71.0632 53.4147 71.2422 53.6426C71.4212 53.8672 71.6344 54.0381 71.8818 54.1553C72.1325 54.2725 72.4092 54.3311 72.7119 54.3311C73.0472 54.3311 73.319 54.3034 73.5273 54.248C73.7357 54.1895 73.8984 54.1211 74.0156 54.043C74.1328 53.9616 74.2223 53.8851 74.2842 53.8135V52.2217H72.6387V51.46H75.2217ZM80.5732 53.2031C80.5732 53.0371 80.5472 52.8906 80.4951 52.7637C80.4463 52.6335 80.3584 52.5163 80.2314 52.4121C80.1077 52.3079 79.9352 52.2087 79.7139 52.1143C79.4958 52.0199 79.2191 51.9238 78.8838 51.8262C78.5322 51.722 78.2148 51.6064 77.9316 51.4795C77.6484 51.3493 77.4059 51.2012 77.2041 51.0352C77.0023 50.8691 76.8477 50.6787 76.7402 50.4639C76.6328 50.249 76.5791 50.0033 76.5791 49.7266C76.5791 49.4499 76.6361 49.1943 76.75 48.96C76.8639 48.7256 77.0267 48.5221 77.2383 48.3496C77.4531 48.1738 77.7087 48.0371 78.0049 47.9395C78.3011 47.8418 78.6315 47.793 78.9961 47.793C79.5299 47.793 79.9824 47.8955 80.3535 48.1006C80.7279 48.3024 81.0127 48.5677 81.208 48.8965C81.4033 49.222 81.501 49.5703 81.501 49.9414H80.5635C80.5635 49.6745 80.5065 49.4385 80.3926 49.2334C80.2786 49.0251 80.1061 48.8623 79.875 48.7451C79.6439 48.6247 79.3509 48.5645 78.9961 48.5645C78.6608 48.5645 78.3841 48.6149 78.166 48.7158C77.9479 48.8167 77.7852 48.9535 77.6777 49.126C77.5736 49.2985 77.5215 49.4954 77.5215 49.7168C77.5215 49.8665 77.5524 50.0033 77.6143 50.127C77.6794 50.2474 77.7786 50.3597 77.9121 50.4639C78.0488 50.568 78.2214 50.6641 78.4297 50.752C78.6413 50.8398 78.8936 50.9245 79.1865 51.0059C79.5902 51.1198 79.9385 51.2467 80.2314 51.3867C80.5244 51.5267 80.7653 51.6846 80.9541 51.8604C81.1462 52.0329 81.2878 52.2298 81.3789 52.4512C81.4733 52.6693 81.5205 52.9167 81.5205 53.1934C81.5205 53.4831 81.4619 53.7451 81.3447 53.9795C81.2275 54.2139 81.0599 54.4141 80.8418 54.5801C80.6237 54.7461 80.3617 54.8747 80.0557 54.9658C79.7529 55.0537 79.4144 55.0977 79.04 55.0977C78.7113 55.0977 78.3874 55.0521 78.0684 54.9609C77.7526 54.8698 77.4645 54.7331 77.2041 54.5508C76.9469 54.3685 76.7402 54.1439 76.584 53.877C76.431 53.6068 76.3545 53.2943 76.3545 52.9395H77.292C77.292 53.1836 77.3392 53.3936 77.4336 53.5693C77.528 53.7419 77.6566 53.8851 77.8193 53.999C77.9854 54.113 78.1725 54.1976 78.3809 54.2529C78.5924 54.305 78.8122 54.3311 79.04 54.3311C79.3688 54.3311 79.6471 54.2855 79.875 54.1943C80.1029 54.1032 80.2754 53.973 80.3926 53.8037C80.513 53.6344 80.5732 53.4342 80.5732 53.2031Z" fill="#5C4FA6"/>
<line y1="59.25" x2="108" y2="59.25" stroke="#5C4FA6" stroke-width="1.5"/>
</svg>
