<svg width="107" height="60" viewBox="0 0 107 60" fill="none" xmlns="http://www.w3.org/2000/svg">
<rect width="107" height="60" fill="white"/>
<path d="M65.984 17.3059V16.7139C65.9815 15.7684 65.2156 15.0025 64.2701 15C63.3239 15.001 62.5572 15.7678 62.5562 16.7139V17.2781H60.8021V16.7139C60.8021 15.7684 60.0364 15.0015 59.0909 15C58.1448 15.0012 57.3782 15.7678 57.377 16.7139V17.2781H55.623V16.7139C55.623 16.1021 55.2966 15.5367 54.7667 15.2308C54.2368 14.9249 53.584 14.9249 53.0541 15.2308C52.5243 15.5367 52.1979 16.1021 52.1979 16.7139V17.2781H50.4439V16.7139C50.4414 15.7684 49.6755 15.0025 48.7299 15C47.7839 15.0012 47.0172 15.7678 47.016 16.7139V17.3059C45.2958 17.518 44.0027 18.978 44 20.7112V36.5668C44.0022 38.462 45.538 39.9978 47.4332 40H65.5668C67.462 39.9978 68.9978 38.462 69 36.5668V20.7112C68.9973 18.978 67.7042 17.518 65.984 17.3059ZM63.492 16.7139C63.4926 16.2844 63.8406 15.9364 64.2701 15.9358C64.6987 15.9385 65.0455 16.2853 65.0481 16.7139V18.7781C65.0481 19.2078 64.6998 19.5561 64.2701 19.5561C63.8403 19.5561 63.492 19.2078 63.492 18.7781V16.7139ZM58.3128 16.7139C58.3133 16.2844 58.6614 15.9363 59.0909 15.9358C59.5196 15.9372 59.8665 16.2852 59.8663 16.7139V18.7781C59.8663 19.2071 59.5186 19.5548 59.0896 19.5548C58.6606 19.5548 58.3128 19.2071 58.3128 18.7781V16.7139ZM53.1337 16.7139C53.1337 16.2849 53.4814 15.9372 53.9104 15.9372C54.3394 15.9372 54.6872 16.2849 54.6872 16.7139V18.7781C54.6872 19.2071 54.3394 19.5548 53.9104 19.5548C53.4814 19.5548 53.1337 19.2071 53.1337 18.7781V16.7139ZM47.9519 16.7139C47.9523 16.2844 48.3004 15.9363 48.7299 15.9358C49.1586 15.9385 49.5054 16.2853 49.508 16.7139V18.7781C49.508 19.2078 49.1597 19.5561 48.7299 19.5561C48.3002 19.5561 47.9519 19.2078 47.9519 18.7781V16.7139ZM47.016 18.2516V18.7781C47.016 19.7246 47.7834 20.492 48.7299 20.492C49.6765 20.492 50.4439 19.7246 50.4439 18.7781V18.2139H52.1979V18.7781C52.1979 19.7239 52.9646 20.4906 53.9104 20.4906C54.8563 20.4906 55.623 19.7239 55.623 18.7781V18.2139H57.377V18.7781C57.377 19.7239 58.1437 20.4906 59.0896 20.4906C60.0354 20.4906 60.8021 19.7239 60.8021 18.7781V18.2139H62.5562V18.7781C62.5562 19.7246 63.3235 20.492 64.2701 20.492C65.2166 20.492 65.984 19.7246 65.984 18.7781V18.2516C67.1838 18.4557 68.0621 19.4944 68.0642 20.7115V22.1198H44.9358V20.7112C44.938 19.4943 45.8163 18.4557 47.016 18.2516ZM65.5668 39.0642H47.4332C46.0546 39.0626 44.9374 37.9454 44.9358 36.5668V23.0561H68.0642V36.5668C68.0626 37.9454 66.9454 39.0626 65.5668 39.0642Z" fill="#666666"/>
<path d="M60.4014 27.785L56.0549 32.1135L53.9753 30.0414C53.595 29.6756 52.9907 29.6809 52.617 30.0534C52.2433 30.4259 52.2382 31.0281 52.6055 31.4068L55.37 34.1614C55.5517 34.3426 55.7982 34.4444 56.0552 34.4444C56.3123 34.4444 56.5587 34.3426 56.7404 34.1614L61.7717 29.1482C62.1502 28.7712 62.1502 28.1598 61.7717 27.7828C61.3933 27.4057 60.7798 27.4057 60.4014 27.7828V27.785Z" fill="#666666" stroke="white" stroke-width="0.5"/>
<path d="M35.3594 48.6748H33.5576L33.5479 47.918H35.1836C35.4538 47.918 35.6898 47.8724 35.8916 47.7812C36.0934 47.6901 36.2497 47.5599 36.3604 47.3906C36.4743 47.2181 36.5312 47.013 36.5312 46.7754C36.5312 46.515 36.4808 46.3034 36.3799 46.1406C36.2822 45.9746 36.1309 45.8542 35.9258 45.7793C35.724 45.7012 35.4668 45.6621 35.1543 45.6621H33.7676V52H32.8252V44.8906H35.1543C35.5189 44.8906 35.8444 44.9281 36.1309 45.0029C36.4173 45.0745 36.6598 45.1885 36.8584 45.3447C37.0602 45.4977 37.2132 45.693 37.3174 45.9307C37.4215 46.1683 37.4736 46.4531 37.4736 46.7852C37.4736 47.0781 37.3988 47.3434 37.249 47.5811C37.0993 47.8154 36.891 48.0075 36.624 48.1572C36.3604 48.307 36.0511 48.403 35.6963 48.4453L35.3594 48.6748ZM35.3154 52H33.1865L33.7188 51.2334H35.3154C35.6149 51.2334 35.8688 51.1813 36.0771 51.0771C36.2887 50.973 36.4499 50.8265 36.5605 50.6377C36.6712 50.4456 36.7266 50.2194 36.7266 49.959C36.7266 49.6953 36.6794 49.4674 36.585 49.2754C36.4906 49.0833 36.3424 48.9352 36.1406 48.8311C35.9388 48.7269 35.6784 48.6748 35.3594 48.6748H34.0166L34.0264 47.918H35.8623L36.0625 48.1914C36.4043 48.2207 36.694 48.3184 36.9316 48.4844C37.1693 48.6471 37.3499 48.8555 37.4736 49.1094C37.6006 49.3633 37.6641 49.6432 37.6641 49.9492C37.6641 50.3919 37.5664 50.7663 37.3711 51.0723C37.179 51.375 36.9072 51.6061 36.5557 51.7656C36.2041 51.9219 35.7907 52 35.3154 52ZM44.5293 48.2207V48.6699C44.5293 49.2038 44.4626 49.6823 44.3291 50.1055C44.1956 50.5286 44.0036 50.8883 43.7529 51.1846C43.5023 51.4808 43.2012 51.707 42.8496 51.8633C42.5013 52.0195 42.1107 52.0977 41.6777 52.0977C41.2578 52.0977 40.8721 52.0195 40.5205 51.8633C40.1722 51.707 39.8695 51.4808 39.6123 51.1846C39.3584 50.8883 39.1615 50.5286 39.0215 50.1055C38.8815 49.6823 38.8115 49.2038 38.8115 48.6699V48.2207C38.8115 47.6868 38.8799 47.21 39.0166 46.79C39.1566 46.3669 39.3535 46.0072 39.6074 45.7109C39.8613 45.4115 40.1624 45.1836 40.5107 45.0273C40.8623 44.8711 41.248 44.793 41.668 44.793C42.1009 44.793 42.4915 44.8711 42.8398 45.0273C43.1914 45.1836 43.4925 45.4115 43.7432 45.7109C43.9971 46.0072 44.1908 46.3669 44.3242 46.79C44.4609 47.21 44.5293 47.6868 44.5293 48.2207ZM43.5967 48.6699V48.2109C43.5967 47.7878 43.5527 47.4134 43.4648 47.0879C43.3802 46.7624 43.2549 46.4889 43.0889 46.2676C42.9229 46.0462 42.7194 45.8786 42.4785 45.7646C42.2409 45.6507 41.9707 45.5938 41.668 45.5938C41.375 45.5938 41.1097 45.6507 40.8721 45.7646C40.6377 45.8786 40.4359 46.0462 40.2666 46.2676C40.1006 46.4889 39.972 46.7624 39.8809 47.0879C39.7897 47.4134 39.7441 47.7878 39.7441 48.2109V48.6699C39.7441 49.0964 39.7897 49.474 39.8809 49.8027C39.972 50.1283 40.1022 50.4033 40.2715 50.6279C40.444 50.8493 40.6475 51.0169 40.8818 51.1309C41.1195 51.2448 41.3848 51.3018 41.6777 51.3018C41.9837 51.3018 42.2555 51.2448 42.4932 51.1309C42.7308 51.0169 42.931 50.8493 43.0938 50.6279C43.2598 50.4033 43.3851 50.1283 43.4697 49.8027C43.5544 49.474 43.5967 49.0964 43.5967 48.6699ZM51.4141 48.2207V48.6699C51.4141 49.2038 51.3473 49.6823 51.2139 50.1055C51.0804 50.5286 50.8883 50.8883 50.6377 51.1846C50.387 51.4808 50.0859 51.707 49.7344 51.8633C49.3861 52.0195 48.9954 52.0977 48.5625 52.0977C48.1426 52.0977 47.7568 52.0195 47.4053 51.8633C47.057 51.707 46.7542 51.4808 46.4971 51.1846C46.2432 50.8883 46.0462 50.5286 45.9062 50.1055C45.7663 49.6823 45.6963 49.2038 45.6963 48.6699V48.2207C45.6963 47.6868 45.7646 47.21 45.9014 46.79C46.0413 46.3669 46.2383 46.0072 46.4922 45.7109C46.7461 45.4115 47.0472 45.1836 47.3955 45.0273C47.7471 44.8711 48.1328 44.793 48.5527 44.793C48.9857 44.793 49.3763 44.8711 49.7246 45.0273C50.0762 45.1836 50.3773 45.4115 50.6279 45.7109C50.8818 46.0072 51.0755 46.3669 51.209 46.79C51.3457 47.21 51.4141 47.6868 51.4141 48.2207ZM50.4814 48.6699V48.2109C50.4814 47.7878 50.4375 47.4134 50.3496 47.0879C50.265 46.7624 50.1396 46.4889 49.9736 46.2676C49.8076 46.0462 49.6042 45.8786 49.3633 45.7646C49.1257 45.6507 48.8555 45.5938 48.5527 45.5938C48.2598 45.5938 47.9945 45.6507 47.7568 45.7646C47.5225 45.8786 47.3206 46.0462 47.1514 46.2676C46.9854 46.4889 46.8568 46.7624 46.7656 47.0879C46.6745 47.4134 46.6289 47.7878 46.6289 48.2109V48.6699C46.6289 49.0964 46.6745 49.474 46.7656 49.8027C46.8568 50.1283 46.987 50.4033 47.1562 50.6279C47.3288 50.8493 47.5322 51.0169 47.7666 51.1309C48.0042 51.2448 48.2695 51.3018 48.5625 51.3018C48.8685 51.3018 49.1403 51.2448 49.3779 51.1309C49.6156 51.0169 49.8158 50.8493 49.9785 50.6279C50.1445 50.4033 50.2699 50.1283 50.3545 49.8027C50.4391 49.474 50.4814 49.0964 50.4814 48.6699ZM53.7676 44.8906V52H52.8252V44.8906H53.7676ZM58.0596 44.8906L55.1055 48.2061L53.4453 49.9297L53.2891 48.9238L54.5391 47.5469L56.9268 44.8906H58.0596ZM57.1514 52L54.5195 48.5332L55.0811 47.7861L58.2744 52H57.1514ZM60.1152 44.8906V52H59.1729V44.8906H60.1152ZM67.2979 44.8906V52H66.3506L62.7715 46.5166V52H61.8291V44.8906H62.7715L66.3652 50.3887V44.8906H67.2979ZM74.2217 48.46V51.0625C74.1338 51.1927 73.9938 51.3392 73.8018 51.502C73.6097 51.6615 73.3444 51.8014 73.0059 51.9219C72.6706 52.0391 72.2376 52.0977 71.707 52.0977C71.2741 52.0977 70.8753 52.0228 70.5107 51.873C70.1494 51.7201 69.8353 51.4987 69.5684 51.209C69.3047 50.916 69.0996 50.5612 68.9531 50.1445C68.8099 49.7246 68.7383 49.2493 68.7383 48.7188V48.167C68.7383 47.6364 68.8001 47.1628 68.9238 46.7461C69.0508 46.3294 69.2363 45.9762 69.4805 45.6865C69.7246 45.3936 70.0241 45.1722 70.3789 45.0225C70.7337 44.8695 71.1406 44.793 71.5996 44.793C72.1432 44.793 72.5973 44.8874 72.9619 45.0762C73.3298 45.2617 73.6162 45.5189 73.8213 45.8477C74.0296 46.1764 74.1631 46.5508 74.2217 46.9707H73.2793C73.237 46.7135 73.1523 46.4792 73.0254 46.2676C72.9017 46.056 72.7243 45.8867 72.4932 45.7598C72.262 45.6296 71.9642 45.5645 71.5996 45.5645C71.2708 45.5645 70.986 45.6247 70.7451 45.7451C70.5042 45.8656 70.3057 46.0381 70.1494 46.2627C69.9932 46.4873 69.876 46.7591 69.7979 47.0781C69.723 47.3971 69.6855 47.7568 69.6855 48.1572V48.7188C69.6855 49.1289 69.7327 49.4951 69.8271 49.8174C69.9248 50.1396 70.0632 50.4147 70.2422 50.6426C70.4212 50.8672 70.6344 51.0381 70.8818 51.1553C71.1325 51.2725 71.4092 51.3311 71.7119 51.3311C72.0472 51.3311 72.319 51.3034 72.5273 51.248C72.7357 51.1895 72.8984 51.1211 73.0156 51.043C73.1328 50.9616 73.2223 50.8851 73.2842 50.8135V49.2217H71.6387V48.46H74.2217ZM79.5732 50.2031C79.5732 50.0371 79.5472 49.8906 79.4951 49.7637C79.4463 49.6335 79.3584 49.5163 79.2314 49.4121C79.1077 49.3079 78.9352 49.2087 78.7139 49.1143C78.4958 49.0199 78.2191 48.9238 77.8838 48.8262C77.5322 48.722 77.2148 48.6064 76.9316 48.4795C76.6484 48.3493 76.4059 48.2012 76.2041 48.0352C76.0023 47.8691 75.8477 47.6787 75.7402 47.4639C75.6328 47.249 75.5791 47.0033 75.5791 46.7266C75.5791 46.4499 75.6361 46.1943 75.75 45.96C75.8639 45.7256 76.0267 45.5221 76.2383 45.3496C76.4531 45.1738 76.7087 45.0371 77.0049 44.9395C77.3011 44.8418 77.6315 44.793 77.9961 44.793C78.5299 44.793 78.9824 44.8955 79.3535 45.1006C79.7279 45.3024 80.0127 45.5677 80.208 45.8965C80.4033 46.222 80.501 46.5703 80.501 46.9414H79.5635C79.5635 46.6745 79.5065 46.4385 79.3926 46.2334C79.2786 46.0251 79.1061 45.8623 78.875 45.7451C78.6439 45.6247 78.3509 45.5645 77.9961 45.5645C77.6608 45.5645 77.3841 45.6149 77.166 45.7158C76.9479 45.8167 76.7852 45.9535 76.6777 46.126C76.5736 46.2985 76.5215 46.4954 76.5215 46.7168C76.5215 46.8665 76.5524 47.0033 76.6143 47.127C76.6794 47.2474 76.7786 47.3597 76.9121 47.4639C77.0488 47.568 77.2214 47.6641 77.4297 47.752C77.6413 47.8398 77.8936 47.9245 78.1865 48.0059C78.5902 48.1198 78.9385 48.2467 79.2314 48.3867C79.5244 48.5267 79.7653 48.6846 79.9541 48.8604C80.1462 49.0329 80.2878 49.2298 80.3789 49.4512C80.4733 49.6693 80.5205 49.9167 80.5205 50.1934C80.5205 50.4831 80.4619 50.7451 80.3447 50.9795C80.2275 51.2139 80.0599 51.4141 79.8418 51.5801C79.6237 51.7461 79.3617 51.8747 79.0557 51.9658C78.7529 52.0537 78.4144 52.0977 78.04 52.0977C77.7113 52.0977 77.3874 52.0521 77.0684 51.9609C76.7526 51.8698 76.4645 51.7331 76.2041 51.5508C75.9469 51.3685 75.7402 51.1439 75.584 50.877C75.431 50.6068 75.3545 50.2943 75.3545 49.9395H76.292C76.292 50.1836 76.3392 50.3936 76.4336 50.5693C76.528 50.7419 76.6566 50.8851 76.8193 50.999C76.9854 51.113 77.1725 51.1976 77.3809 51.2529C77.5924 51.305 77.8122 51.3311 78.04 51.3311C78.3688 51.3311 78.6471 51.2855 78.875 51.1943C79.1029 51.1032 79.2754 50.973 79.3926 50.8037C79.513 50.6344 79.5732 50.4342 79.5732 50.2031Z" fill="#666666"/>
</svg>
