<?xml version="1.0" encoding="UTF-8"?>
<svg width="20px" height="20px" viewBox="0 0 20 20" version="1.1" xmlns="http://www.w3.org/2000/svg" xmlns:xlink="http://www.w3.org/1999/xlink">
    <title>62F5215B-5AE4-4B61-8F6C-9A5C38B68FD3</title>
    <g id="Runner-Boy" stroke="none" stroke-width="1" fill="none" fill-rule="evenodd">
        <g id="6-RBHomePageAfterLogin@2x" transform="translate(-146.000000, -1067.000000)" fill="#666666" fill-rule="nonzero">
            <g id="Group-30" transform="translate(0.000000, 1052.000000)">
                <g id="Group-8" transform="translate(103.500000, 0.000000)">
                    <g id="Group-39-Copy-3" transform="translate(27.500000, 15.000000)">
                        <g id="Group-31" transform="translate(15.000000, 0.000000)">
                            <path d="M17.5871658,1.84470588 L17.5871658,1.37112299 C17.5851676,0.61470189 16.9724639,0.00199817046 16.2160428,0 C15.4591345,0.00082522582 14.845745,0.614214758 14.8449198,1.37112299 L14.8449198,1.82245989 L13.4417112,1.82245989 L13.4417112,1.37112299 C13.4417122,0.614707235 12.8291421,0.00118005579 12.0727273,0 C11.3158678,0.000942834409 10.7025471,0.614263553 10.7016043,1.37112299 L10.7016043,1.82245989 L9.29839572,1.82245989 L9.29839572,1.37112299 C9.29839574,0.881650022 9.03726502,0.429358337 8.613369,0.184621846 C8.18947297,-0.0601146448 7.66721152,-0.0601146448 7.2433155,0.184621846 C6.81941947,0.429358337 6.55828876,0.881650022 6.55828877,1.37112299 L6.55828877,1.82245989 L5.15508021,1.82245989 L5.15508021,1.37112299 C5.15308204,0.61470189 4.54037832,0.00199817046 3.78395722,0 C3.02709778,0.000942834409 2.41377706,0.614263553 2.41283422,1.37112299 L2.41283422,1.84470588 C1.03663645,2.0144042 0.00219908031,3.18236469 0,4.56898396 L0,17.2534759 C0.00176808389,18.7696063 1.23039368,19.9982319 2.74652406,20 L17.2534759,20 C18.7696063,19.9982319 19.9982319,18.7696063 20,17.2534759 L20,4.56898396 C19.9978009,3.18236469 18.9633635,2.0144042 17.5871658,1.84470588 L17.5871658,1.84470588 Z M15.5935829,1.37112299 C15.5940542,1.0275433 15.8724631,0.749134405 16.2160428,0.748663102 C16.5589436,0.750764698 16.8364011,1.02822217 16.8385027,1.37112299 L16.8385027,3.02245989 C16.8385027,3.36623498 16.5598179,3.64491975 16.2160428,3.64491975 C15.8722677,3.64491975 15.5935829,3.36623498 15.5935829,3.02245989 L15.5935829,1.37112299 Z M11.4502674,1.37112299 C11.4506211,1.02749451 11.7290988,0.749016811 12.0727273,0.748663102 C12.4157157,0.749724239 12.6931677,1.02813296 12.6930482,1.37112299 L12.6930482,3.02245989 C12.6930482,3.36564432 12.4148422,3.64385027 12.0716578,3.64385027 C11.7284733,3.64385027 11.4502674,3.36564432 11.4502674,3.02245989 L11.4502674,1.37112299 Z M7.30695187,1.37112299 C7.30695187,1.02793857 7.58515782,0.74973262 7.92834225,0.74973262 C8.27152667,0.74973262 8.54973262,1.02793857 8.54973262,1.37112299 L8.54973262,3.02245989 C8.54973262,3.36564432 8.27152667,3.64385027 7.92834225,3.64385027 C7.58515782,3.64385027 7.30695187,3.36564432 7.30695187,3.02245989 L7.30695187,1.37112299 Z M3.16149733,1.37112299 C3.16185104,1.02749451 3.44032873,0.749016811 3.78395722,0.748663102 C4.12685804,0.750764698 4.40431552,1.02822217 4.40641711,1.37112299 L4.40641711,3.02245989 C4.40641711,3.366235 4.12773233,3.64491979 3.78395722,3.64491979 C3.44018211,3.64491979 3.16149733,3.366235 3.16149733,3.02245989 L3.16149733,1.37112299 Z M2.41283422,2.60128342 L2.41283422,3.02245989 C2.41283422,3.77971021 3.0267069,4.39358289 3.78395722,4.39358289 C4.54120754,4.39358289 5.15508021,3.77971021 5.15508021,3.02245989 L5.15508021,2.57112299 L6.55828877,2.57112299 L6.55828877,3.02245989 C6.55828877,3.77911953 7.1716826,4.39251337 7.92834225,4.39251337 C8.68500189,4.39251337 9.29839572,3.77911953 9.29839572,3.02245989 L9.29839572,2.57112299 L10.7016043,2.57112299 L10.7016043,3.02245989 C10.7016043,3.77911953 11.3149981,4.39251337 12.0716578,4.39251337 C12.8283174,4.39251337 13.4417112,3.77911953 13.4417112,3.02245989 L13.4417112,2.57112299 L14.8449198,2.57112299 L14.8449198,3.02245989 C14.8449198,3.77971021 15.4587925,4.39358289 16.2160428,4.39358289 C16.9732931,4.39358289 17.5871658,3.77971021 17.5871658,3.02245989 L17.5871658,2.60128342 C18.5470257,2.76459939 19.2497164,3.59554469 19.2513369,4.56919786 L19.2513369,5.69582888 L0.748663102,5.69582888 L0.748663102,4.56898396 C0.750387676,3.59541166 1.45305385,2.76458568 2.41283422,2.60128342 Z M17.2534759,19.2513369 L2.74652406,19.2513369 C1.64367343,19.2500403 0.749959673,18.3563266 0.748663102,17.2534759 L0.748663102,6.44491979 L19.2513369,6.44491979 L19.2513369,17.2534759 C19.2500403,18.3563266 18.3563266,19.2500403 17.2534759,19.2513369 L17.2534759,19.2513369 Z" id="Shape"></path>
                            <path d="M13.1210948,10.2279969 L9.64394524,13.6908321 L7.98022885,12.03312 C7.67601288,11.7404764 7.19254093,11.7447596 6.89359541,12.0427466 C6.59464989,12.3407336 6.59054662,12.8224624 6.88437305,13.1254622 L9.09601734,15.3291247 C9.24133276,15.4740962 9.43853153,15.5555556 9.64416672,15.5555556 C9.8498019,15.5555556 10.0470007,15.4740962 10.1923161,15.3291247 L14.2173935,11.3185737 C14.5201281,11.0169317 14.5201281,10.5278735 14.2173935,10.2262315 C13.914659,9.92458951 13.4238293,9.92458951 13.1210948,10.2262315 L13.1210948,10.2279969 Z" id="Path" stroke="#FFFFFF" stroke-width="0.5"></path>
                        </g>
                    </g>
                </g>
            </g>
        </g>
    </g>
</svg>