<?xml version="1.0" encoding="UTF-8"?>
<svg width="20px" height="20px" viewBox="0 0 20 20" version="1.1" xmlns="http://www.w3.org/2000/svg" xmlns:xlink="http://www.w3.org/1999/xlink">
    <title>A554E412-F3B7-4C8A-844E-EE395B63D624</title>
    <g id="Runner-Boy" stroke="none" stroke-width="1" fill="none" fill-rule="evenodd">
        <g id="6-RBHomePageAfterLogin@2x" transform="translate(-45.000000, -918.000000)" fill="#212121" fill-rule="nonzero">
            <g id="Group-3" transform="translate(0.000000, 456.000000)">
                <g id="Group-61" transform="translate(25.000000, 403.000000)">
                    <g id="Group-60" transform="translate(0.000000, 13.000000)">
                        <g id="distance-copy-2" transform="translate(20.000000, 46.000000)">
                            <path d="M4.375,3.75 C1.9625,3.75 0,5.7125 0,8.125 C0,10.37 3.51,14.34625 3.91,14.7925 C4.02875,14.92375 4.1975,15 4.375,15 C4.5525,15 4.72125,14.92375 4.84,14.7925 C5.24,14.34625 8.75,10.37 8.75,8.125 C8.75,5.7125 6.7875,3.75 4.375,3.75 Z M4.375,13.42125 C3.01,11.8025 1.25,9.3175 1.25,8.125 C1.25,6.4025 2.6525,5 4.375,5 C6.0975,5 7.5,6.4025 7.5,8.125 C7.5,9.31625 5.74,11.8025 4.375,13.42125 Z" id="Shape"></path>
                            <path d="M4.375,6.25 C3.34125,6.25 2.5,7.09125 2.5,8.125 C2.5,9.15875 3.34125,10 4.375,10 C5.40875,10 6.25,9.15875 6.25,8.125 C6.25,7.09125 5.40875,6.25 4.375,6.25 Z M4.375,8.75 C4.03,8.75 3.75,8.47 3.75,8.125 C3.75,7.78 4.03,7.5 4.375,7.5 C4.72,7.5 5,7.78 5,8.125 C5,8.47 4.72,8.75 4.375,8.75 Z" id="Shape"></path>
                            <path d="M19.375,0 L14.375,0 C14.03,0 13.75,0.28 13.75,0.625 L13.75,4.375 L13.75,6.875 C13.75,7.22 14.03,7.5 14.375,7.5 C14.72,7.5 15,7.22 15,6.875 L15,5 L19.375,5 C19.72,5 20,4.72 20,4.375 L20,0.625 C20,0.28 19.72,0 19.375,0 Z M18.75,3.75 L15,3.75 L15,1.25 L18.75,1.25 L18.75,3.75 Z" id="Shape"></path>
                            <path d="M17.5,13.75 L11.25,13.75 C10.56125,13.75 10,13.18875 10,12.5 C10,11.81125 10.56125,11.25 11.25,11.25 L12.615,11.25 C12.87375,11.97625 13.56125,12.5 14.375,12.5 C15.40875,12.5 16.25,11.65875 16.25,10.625 C16.25,9.59125 15.40875,8.75 14.375,8.75 C13.56125,8.75 12.87375,9.27375 12.615,10 L11.25,10 C9.87125,10 8.75,11.12125 8.75,12.5 C8.75,13.87875 9.87125,15 11.25,15 L17.5,15 C18.18875,15 18.75,15.56125 18.75,16.25 C18.75,16.93875 18.18875,17.5 17.5,17.5 L6.135,17.5 C5.87625,16.77375 5.18875,16.25 4.375,16.25 C3.34125,16.25 2.5,17.09125 2.5,18.125 C2.5,19.15875 3.34125,20 4.375,20 C5.18875,20 5.87625,19.47625 6.135,18.75 L17.5,18.75 C18.87875,18.75 20,17.62875 20,16.25 C20,14.87125 18.87875,13.75 17.5,13.75 Z M14.375,10 C14.72,10 15,10.28 15,10.625 C15,10.97 14.72,11.25 14.375,11.25 C14.03,11.25 13.75,10.97 13.75,10.625 C13.75,10.28 14.03,10 14.375,10 Z M4.375,18.75 C4.03,18.75 3.75,18.47 3.75,18.125 C3.75,17.78 4.03,17.5 4.375,17.5 C4.72,17.5 5,17.78 5,18.125 C5,18.47 4.72,18.75 4.375,18.75 Z" id="Shape"></path>
                        </g>
                    </g>
                </g>
            </g>
        </g>
    </g>
</svg>