<?xml version="1.0" encoding="UTF-8"?>
<svg width="24px" height="18px" viewBox="0 0 24 18" version="1.1" xmlns="http://www.w3.org/2000/svg" xmlns:xlink="http://www.w3.org/1999/xlink">
    <title>29C5163A-1F8B-432C-90DC-5FFAEF210627</title>
    <g id="Runner-Boy" stroke="none" stroke-width="1" fill="none" fill-rule="evenodd">
        <g id="21-RBViewProfile@2x" transform="translate(-179.000000, -183.000000)" fill="#212121" fill-rule="nonzero" stroke="#E3ECFF" stroke-width="0.3">
            <g id="Group-13" transform="translate(40.000000, 141.000000)">
                <g id="Group-8" transform="translate(140.000000, 9.000000)">
                    <g id="Group-5" transform="translate(0.000000, 32.000000)">
                        <g id="email" transform="translate(0.000000, 2.000000)">
                            <path d="M17.4166523,6.43989844 L17.4166523,1.83334766 C17.4166523,0.82225 16.5944453,0 15.5833047,0 L1.83330469,0 C0.822207031,0 0,0.822207031 0,1.83334766 L0,11 C0,12.0110977 0.822207031,12.8333477 1.83334766,12.8333477 L12.1121172,12.8333477 C12.7126484,14.94625 14.6554805,16.5 16.9583477,16.5 C17.8445781,16.5 18.7160273,16.2668086 19.479625,15.8250469 C19.6985078,15.698375 19.7737031,15.4181758 19.6465586,15.1988633 C19.5198867,14.9795508 19.2392578,14.9038828 19.020375,15.0319297 C18.3964258,15.3926953 17.6834023,15.5833477 16.9583047,15.5833477 C14.683625,15.5833477 12.8333047,13.7329844 12.8333047,11.4583477 C12.8333047,9.18371094 14.683668,7.33334766 16.9583047,7.33334766 C19.2329414,7.33334766 21.0833047,9.18371094 21.0833047,11.4583477 L21.0833047,11.9166953 C21.0833047,12.4220078 20.6719648,12.8333477 20.1666523,12.8333477 C19.6613398,12.8333477 19.25,12.4220078 19.25,11.9166953 L19.25,10.0833477 C19.25,9.83000391 19.0449961,9.625 18.7916523,9.625 C18.668375,9.625 18.5576016,9.67488672 18.4753164,9.75390625 C18.070207,9.39292578 17.542293,9.16665234 16.9583047,9.16665234 C15.6947656,9.16665234 14.6666523,10.1947656 14.6666523,11.4583047 C14.6666523,12.7218438 15.6947656,13.75 16.9583477,13.75 C17.6413789,13.75 18.2486992,13.4435898 18.6689336,12.9678828 C19.0009531,13.4395508 19.5472148,13.75 20.1666953,13.75 C21.177793,13.75 22,12.927793 22,11.9166523 L22,11.4583047 C22,8.83304297 19.9823594,6.67253125 17.4166523,6.43989844 Z M1.83334766,0.916652344 L15.5833477,0.916652344 C15.6024258,0.916652344 15.6184102,0.92640625 15.6372305,0.927566406 L9.08522656,6.30566406 C8.85203516,6.45248828 8.51408594,6.42202344 8.36236328,6.32895312 L1.78002344,0.927480469 C1.79862891,0.926363281 1.81444141,0.916652344 1.83334766,0.916652344 Z M16.500043,6.43989844 C13.934293,6.67253125 11.9166523,8.83304297 11.9166523,11.4583477 C11.9166523,11.6130352 11.9261484,11.7654883 11.9398555,11.9166953 L1.83334766,11.9166953 C1.32803516,11.9166953 0.916695313,11.5053555 0.916695313,11.000043 L0.916695313,1.83334766 C0.916695313,1.70353906 0.945355469,1.58094922 0.994253906,1.46888672 L7.82125781,7.0675 C8.08800781,7.24160938 8.39463281,7.33339062 8.70839062,7.33339062 C9.01007422,7.33339062 9.30501172,7.24835547 9.56462891,7.08722266 C9.59058203,7.07334375 9.61520313,7.05680078 9.63849219,7.03755078 L16.4223984,1.46888672 C16.4713398,1.58094922 16.500043,1.70353906 16.500043,1.83339062 L16.500043,6.43989844 L16.500043,6.43989844 Z M16.9583477,12.8333477 C16.2001211,12.8333477 15.5833477,12.2165742 15.5833477,11.4583477 C15.5833477,10.7001211 16.2001211,10.0833477 16.9583477,10.0833477 C17.7165742,10.0833477 18.3333477,10.7001211 18.3333477,11.4583477 C18.3333477,12.2165742 17.7165742,12.8333477 16.9583477,12.8333477 Z" id="Shape"></path>
                        </g>
                    </g>
                </g>
            </g>
        </g>
    </g>
</svg>