<svg width="108" height="60" viewBox="0 0 108 60" fill="none" xmlns="http://www.w3.org/2000/svg">
<path d="M0 0C40.3499 21.2627 64.0204 21.001 108 0V60H0V0Z" fill="white"/>
<path d="M68.9034 27.4793L56.4928 18.1351C56.2535 17.955 55.9284 17.955 55.6891 18.1351L43.2785 27.4793C42.9753 27.7076 42.9095 28.1453 43.1314 28.457C43.3534 28.7687 43.7791 28.8363 44.0822 28.6082L56.0909 19.5665L68.0996 28.6081C68.2207 28.6994 68.3614 28.7433 68.5009 28.7433C68.7104 28.7433 68.9171 28.6441 69.0503 28.4569C69.2724 28.1453 69.2065 27.7076 68.9034 27.4793Z" fill="#5C4FA6"/>
<path d="M65.6148 28.7665C65.2392 28.7665 64.9346 29.0797 64.9346 29.466V40.6008H59.4925V34.5228C59.4925 32.5939 57.9665 31.0248 56.091 31.0248C54.2154 31.0248 52.6894 32.594 52.6894 34.5228V40.6009H47.2473V29.4661C47.2473 29.0798 46.9427 28.7665 46.567 28.7665C46.1914 28.7665 45.8868 29.0798 45.8868 29.4661V41.3005C45.8868 41.6868 46.1914 42 46.567 42H53.3696C53.7274 42 54.0201 41.7158 54.0473 41.3549C54.0489 41.3386 54.0499 41.3207 54.0499 41.3005V34.5228C54.0499 33.3655 54.9655 32.4239 56.091 32.4239C57.2164 32.4239 58.132 33.3655 58.132 34.5228V41.3005C58.132 41.3206 58.133 41.3382 58.1347 41.3543C58.1615 41.7154 58.4543 42 58.8123 42H65.6149C65.9906 42 66.2952 41.6868 66.2952 41.3005V29.4661C66.2952 29.0797 65.9905 28.7665 65.6148 28.7665Z" fill="#5C4FA6"/>
<path d="M48.4688 49.9473V50.7139H44.6211V49.9473H48.4688ZM44.7676 46.8906V54H43.8252V46.8906H44.7676ZM49.2891 46.8906V54H48.3516V46.8906H49.2891ZM56.4375 50.2207V50.6699C56.4375 51.2038 56.3708 51.6823 56.2373 52.1055C56.1038 52.5286 55.9118 52.8883 55.6611 53.1846C55.4105 53.4808 55.1094 53.707 54.7578 53.8633C54.4095 54.0195 54.0189 54.0977 53.5859 54.0977C53.166 54.0977 52.7803 54.0195 52.4287 53.8633C52.0804 53.707 51.7777 53.4808 51.5205 53.1846C51.2666 52.8883 51.0697 52.5286 50.9297 52.1055C50.7897 51.6823 50.7197 51.2038 50.7197 50.6699V50.2207C50.7197 49.6868 50.7881 49.21 50.9248 48.79C51.0648 48.3669 51.2617 48.0072 51.5156 47.7109C51.7695 47.4115 52.0706 47.1836 52.4189 47.0273C52.7705 46.8711 53.1562 46.793 53.5762 46.793C54.0091 46.793 54.3997 46.8711 54.748 47.0273C55.0996 47.1836 55.4007 47.4115 55.6514 47.7109C55.9053 48.0072 56.099 48.3669 56.2324 48.79C56.3691 49.21 56.4375 49.6868 56.4375 50.2207ZM55.5049 50.6699V50.2109C55.5049 49.7878 55.4609 49.4134 55.373 49.0879C55.2884 48.7624 55.1631 48.4889 54.9971 48.2676C54.8311 48.0462 54.6276 47.8786 54.3867 47.7646C54.1491 47.6507 53.8789 47.5938 53.5762 47.5938C53.2832 47.5938 53.0179 47.6507 52.7803 47.7646C52.5459 47.8786 52.3441 48.0462 52.1748 48.2676C52.0088 48.4889 51.8802 48.7624 51.7891 49.0879C51.6979 49.4134 51.6523 49.7878 51.6523 50.2109V50.6699C51.6523 51.0964 51.6979 51.474 51.7891 51.8027C51.8802 52.1283 52.0104 52.4033 52.1797 52.6279C52.3522 52.8493 52.5557 53.0169 52.79 53.1309C53.0277 53.2448 53.293 53.3018 53.5859 53.3018C53.8919 53.3018 54.1637 53.2448 54.4014 53.1309C54.639 53.0169 54.8392 52.8493 55.002 52.6279C55.168 52.4033 55.2933 52.1283 55.3779 51.8027C55.4626 51.474 55.5049 51.0964 55.5049 50.6699ZM58.1465 46.8906H59.0596L61.3887 52.6865L63.7129 46.8906H64.6309L61.7402 54H61.0273L58.1465 46.8906ZM57.8486 46.8906H58.6543L58.7861 51.2266V54H57.8486V46.8906ZM64.1182 46.8906H64.9238V54H63.9863V51.2266L64.1182 46.8906ZM71.0957 53.2334V54H67.3311V53.2334H71.0957ZM67.5215 46.8906V54H66.5791V46.8906H67.5215ZM70.5977 49.9473V50.7139H67.3311V49.9473H70.5977ZM71.0469 46.8906V47.6621H67.3311V46.8906H71.0469Z" fill="#5C4FA6"/>
<line y1="59.25" x2="108" y2="59.25" stroke="#5C4FA6" stroke-width="1.5"/>
</svg>
