<svg width="107" height="60" viewBox="0 0 107 60" fill="none" xmlns="http://www.w3.org/2000/svg">
<rect width="107" height="60" fill="white"/>
<path d="M71.9034 27.4793L59.4928 18.1351C59.2535 17.955 58.9284 17.955 58.6891 18.1351L46.2785 27.4793C45.9753 27.7076 45.9095 28.1453 46.1314 28.457C46.3534 28.7687 46.7791 28.8363 47.0822 28.6082L59.0909 19.5665L71.0996 28.6081C71.2207 28.6994 71.3614 28.7433 71.5009 28.7433C71.7104 28.7433 71.9171 28.6441 72.0503 28.4569C72.2724 28.1453 72.2065 27.7076 71.9034 27.4793Z" fill="#666666"/>
<path d="M68.6148 28.7665C68.2392 28.7665 67.9346 29.0797 67.9346 29.466V40.6008H62.4925V34.5228C62.4925 32.5939 60.9665 31.0248 59.091 31.0248C57.2154 31.0248 55.6894 32.5941 55.6894 34.5228V40.6009H50.2473V29.4661C50.2473 29.0798 49.9427 28.7665 49.567 28.7665C49.1914 28.7665 48.8868 29.0798 48.8868 29.4661V41.3005C48.8868 41.6868 49.1914 42 49.567 42H56.3696C56.7274 42 57.0201 41.7158 57.0473 41.3549C57.0489 41.3386 57.0499 41.3207 57.0499 41.3005V34.5228C57.0499 33.3655 57.9655 32.4239 59.091 32.4239C60.2164 32.4239 61.132 33.3655 61.132 34.5228V41.3005C61.132 41.3206 61.133 41.3382 61.1347 41.3543C61.1615 41.7154 61.4543 42 61.8123 42H68.6149C68.9906 42 69.2952 41.6868 69.2952 41.3005V29.4661C69.2952 29.0797 68.9905 28.7665 68.6148 28.7665Z" fill="#666666"/>
<path d="M50.4688 49.9473V50.7139H46.6211V49.9473H50.4688ZM46.7676 46.8906V54H45.8252V46.8906H46.7676ZM51.2891 46.8906V54H50.3516V46.8906H51.2891ZM58.4375 50.2207V50.6699C58.4375 51.2038 58.3708 51.6823 58.2373 52.1055C58.1038 52.5286 57.9118 52.8883 57.6611 53.1846C57.4105 53.4808 57.1094 53.707 56.7578 53.8633C56.4095 54.0195 56.0189 54.0977 55.5859 54.0977C55.166 54.0977 54.7803 54.0195 54.4287 53.8633C54.0804 53.707 53.7777 53.4808 53.5205 53.1846C53.2666 52.8883 53.0697 52.5286 52.9297 52.1055C52.7897 51.6823 52.7197 51.2038 52.7197 50.6699V50.2207C52.7197 49.6868 52.7881 49.21 52.9248 48.79C53.0648 48.3669 53.2617 48.0072 53.5156 47.7109C53.7695 47.4115 54.0706 47.1836 54.4189 47.0273C54.7705 46.8711 55.1562 46.793 55.5762 46.793C56.0091 46.793 56.3997 46.8711 56.748 47.0273C57.0996 47.1836 57.4007 47.4115 57.6514 47.7109C57.9053 48.0072 58.099 48.3669 58.2324 48.79C58.3691 49.21 58.4375 49.6868 58.4375 50.2207ZM57.5049 50.6699V50.2109C57.5049 49.7878 57.4609 49.4134 57.373 49.0879C57.2884 48.7624 57.1631 48.4889 56.9971 48.2676C56.8311 48.0462 56.6276 47.8786 56.3867 47.7646C56.1491 47.6507 55.8789 47.5938 55.5762 47.5938C55.2832 47.5938 55.0179 47.6507 54.7803 47.7646C54.5459 47.8786 54.3441 48.0462 54.1748 48.2676C54.0088 48.4889 53.8802 48.7624 53.7891 49.0879C53.6979 49.4134 53.6523 49.7878 53.6523 50.2109V50.6699C53.6523 51.0964 53.6979 51.474 53.7891 51.8027C53.8802 52.1283 54.0104 52.4033 54.1797 52.6279C54.3522 52.8493 54.5557 53.0169 54.79 53.1309C55.0277 53.2448 55.293 53.3018 55.5859 53.3018C55.8919 53.3018 56.1637 53.2448 56.4014 53.1309C56.639 53.0169 56.8392 52.8493 57.002 52.6279C57.168 52.4033 57.2933 52.1283 57.3779 51.8027C57.4626 51.474 57.5049 51.0964 57.5049 50.6699ZM60.1465 46.8906H61.0596L63.3887 52.6865L65.7129 46.8906H66.6309L63.7402 54H63.0273L60.1465 46.8906ZM59.8486 46.8906H60.6543L60.7861 51.2266V54H59.8486V46.8906ZM66.1182 46.8906H66.9238V54H65.9863V51.2266L66.1182 46.8906ZM73.0957 53.2334V54H69.3311V53.2334H73.0957ZM69.5215 46.8906V54H68.5791V46.8906H69.5215ZM72.5977 49.9473V50.7139H69.3311V49.9473H72.5977ZM73.0469 46.8906V47.6621H69.3311V46.8906H73.0469Z" fill="#666666"/>
</svg>
