<?xml version="1.0" encoding="UTF-8"?>
<svg width="22px" height="20px" viewBox="0 0 22 20" version="1.1" xmlns="http://www.w3.org/2000/svg" xmlns:xlink="http://www.w3.org/1999/xlink">
    <title>D9040BC8-F86D-4FD0-A7AA-9FD0CB748393</title>
    <g id="Runner-Boy" stroke="none" stroke-width="1" fill="none" fill-rule="evenodd">
        <g id="6-RBHomePageAfterLogin@2x" transform="translate(-41.000000, -1067.000000)" fill="#5C4FA6" fill-rule="nonzero">
            <g id="Group-30" transform="translate(0.000000, 1052.000000)">
                <g id="Group-38-Copy-3" transform="translate(37.500000, 15.000000)">
                    <g id="home" transform="translate(3.500000, 0.000000)">
                        <path d="M21.5861356,7.89940086 L11.2439955,0.112597241 C11.044564,-0.0375324136 10.773627,-0.0375324136 10.5742808,0.112597241 L0.232055465,7.89940086 C-0.0205577074,8.08962644 -0.0754439703,8.45438979 0.109541486,8.71415879 C0.294526941,8.97392779 0.649284813,9.03028119 0.901855372,8.84014325 L10.9090955,1.30544001 L20.9163357,8.84009943 C21.0172446,8.91612831 21.1345171,8.95274987 21.2507669,8.95274987 C21.425312,8.95274987 21.597556,8.8701166 21.7086069,8.71411497 C21.893635,8.45438979 21.8387487,8.08962644 21.5861356,7.89940086 Z" id="Path"></path>
                        <path d="M18.8457003,8.97208732 C18.5326611,8.97208732 18.2788121,9.2330833 18.2788121,9.55503385 L18.2788121,18.8340193 L13.743792,18.8340193 L13.743792,13.768962 C13.743792,12.1616194 12.4721182,10.8540103 10.9091381,10.8540103 C9.34615805,10.8540103 8.07448425,12.1617071 8.07448425,13.768962 L8.07448425,18.8340631 L3.53942155,18.8340631 L3.53942155,9.55507767 C3.53942155,9.23312712 3.28557259,8.97208732 2.97253339,8.97208732 C2.65949419,8.97208732 2.40564522,9.23312712 2.40564522,9.55507767 L2.40564522,19.4170535 C2.40564522,19.739004 2.65949419,20 2.97253339,20 L8.64137241,20 C8.93949686,20 9.18345948,19.7631492 9.20604467,19.4624517 C9.2074083,19.4488235 9.20826057,19.4339244 9.20826057,19.4170535 L9.20826057,13.7690059 C9.20826057,12.8045565 9.97125633,12.0199472 10.9091381,12.0199472 C11.8470199,12.0199472 12.6100157,12.8046003 12.6100157,13.7690059 L12.6100157,19.4170535 C12.6100157,19.4338368 12.610868,19.4484729 12.6122316,19.4619259 C12.6345611,19.7628425 12.8786089,20 13.1769039,20 L18.8457429,20 C19.1588247,20 19.412631,19.739004 19.412631,19.4170535 L19.412631,9.55507767 C19.412631,9.2330833 19.1587821,8.97208732 18.8457003,8.97208732 Z" id="Path"></path>
                    </g>
                </g>
            </g>
        </g>
    </g>
</svg>