<?xml version="1.0" encoding="UTF-8"?>
<svg width="24px" height="22px" viewBox="0 0 24 22" version="1.1" xmlns="http://www.w3.org/2000/svg" xmlns:xlink="http://www.w3.org/1999/xlink">
    <title>741E8533-8F48-452F-80FF-DC6E4D113AC1</title>
    <g id="Runner-Boy" stroke="none" stroke-width="1" fill="none" fill-rule="evenodd">
        <g id="21-RBViewProfile@2x" transform="translate(-179.000000, -149.000000)" fill="#212121" fill-rule="nonzero" stroke="#E3ECFF" stroke-width="0.3">
            <g id="Group-13" transform="translate(40.000000, 141.000000)">
                <g id="id-card" transform="translate(140.000000, 9.000000)">
                    <path d="M19.3630588,5.37505882 L13.8,5.37505882 L13.8,1.48235294 C13.7985725,0.663345372 13.1343029,0 12.3152941,0 L10.1270588,0 C9.30864678,0.000648761342 8.64535464,0.663940894 8.64470588,1.48235294 L8.64470588,5.37505882 L2.63694118,5.37505882 C1.18124387,5.37661503 0.00155620336,6.55630269 0,8.012 L0,17.2865882 C0.00155620336,18.7422855 1.18124387,19.9219732 2.63694118,19.9235294 L19.3630588,19.9235294 C20.8187561,19.9219732 21.9984438,18.7422855 22,17.2865882 L22,8.012 C21.9984438,6.55630269 20.8187561,5.37661503 19.3630588,5.37505882 L19.3630588,5.37505882 Z M9.46823512,1.48235294 C9.46823512,1.11849475 9.76320064,0.823529239 10.1270588,0.823529239 L12.3152941,0.823529239 C12.6796417,0.823268426 12.9754327,1.11800673 12.9764706,1.48235294 L12.9764706,6.96470588 C12.9759519,7.3296104 12.6801988,7.62525826 12.3152941,7.62564706 L10.1270588,7.62564706 C9.76275061,7.62473865 9.46797459,7.32901513 9.46823512,6.96470588 L9.46823512,1.48235294 Z M21.1764706,17.2865882 C21.1753037,18.2876241 20.3640947,19.0988331 19.3630588,19.1 L2.63694118,19.1 C1.63590527,19.0988331 0.824696348,18.2876241 0.823529412,17.2865882 L0.823529412,8.012 C0.824696348,7.0109641 1.63590527,6.19975517 2.63694118,6.19858824 L8.64470588,6.19858824 L8.64470588,6.96470588 C8.64496416,7.78362283 9.30814308,8.44774915 10.1270588,8.44917647 L12.3152941,8.44917647 C13.1348065,8.44826901 13.7989627,7.78421813 13.8,6.96470588 L13.8,6.19858824 L19.3630588,6.19858824 C20.3640947,6.19975517 21.1753037,7.0109641 21.1764706,8.012 L21.1764706,17.2865882 Z" id="Shape"></path>
                    <path d="M7.70305882,12.5327059 C8.34227494,11.9518711 8.55845091,11.0377175 8.24709938,10.2320957 C7.93574786,9.42647384 7.16098751,8.89529088 6.29729412,8.89529088 C5.43360072,8.89529088 4.65884038,9.42647384 4.34748885,10.2320957 C4.03613733,11.0377175 4.2523133,11.9518711 4.89152941,12.5327059 C3.93788311,12.9925052 3.33107136,13.9570608 3.32941176,15.0157647 L3.32941176,15.9762353 C3.32954157,16.2035929 3.51381889,16.3878702 3.74117647,16.388 L8.85341176,16.388 C9.08076934,16.3878702 9.26504666,16.2035929 9.26517647,15.9762353 L9.26517647,15.0157647 C9.26357341,13.9570444 8.65674434,12.9924613 7.70305882,12.5327059 L7.70305882,12.5327059 Z M6.29741176,9.73435184 C6.99268206,9.73785726 7.55381256,10.3036837 7.55152953,10.9989591 C7.54923254,11.6942344 6.98438696,12.2563523 6.28910867,12.2552781 C5.59383038,12.2542009 5.03072686,11.6903379 5.03058824,10.9950588 C5.03305279,10.2974244 5.59977359,9.73344037 6.29741176,9.73435184 Z M8.44164706,15.5644706 L4.15294118,15.5644706 L4.15294118,15.0157647 C4.15423766,13.9465591 5.02067676,13.08012 6.08988235,13.0788235 L6.50588235,13.0788235 C7.57508795,13.08012 8.44152705,13.9465591 8.44282353,15.0157647 L8.44164706,15.5644706 Z" id="Shape"></path>
                    <path d="M11.2228235,5.40211765 C11.8725703,5.40211765 12.3992941,4.87539382 12.3992941,4.22564706 C12.3992941,3.57590029 11.8725703,3.04917647 11.2228235,3.04917647 C10.5730768,3.04917647 10.0463529,3.57590029 10.0463529,4.22564706 C10.0476475,4.87485685 10.5736137,5.40082311 11.2228235,5.40211765 Z M11.2228235,3.87082353 C11.4177476,3.87082353 11.5757647,4.02884068 11.5757647,4.22376471 C11.5757647,4.41868874 11.4177476,4.57670588 11.2228235,4.57670588 C11.0278995,4.57670588 10.8698824,4.41868874 10.8698824,4.22376471 C10.8706561,4.02916209 11.0282209,3.87159731 11.2228235,3.87082353 Z" id="Shape"></path>
                    <path d="M11.6689412,11.7030588 L13.4705882,11.7030588 C13.6979996,11.7030588 13.8823529,11.5187055 13.8823529,11.2912941 C13.8823529,11.0638828 13.6979996,10.8795294 13.4705882,10.8795294 L11.6689412,10.8795294 C11.4415298,10.8795294 11.2571765,11.0638828 11.2571765,11.2912941 C11.2571765,11.5187055 11.4415298,11.7030588 11.6689412,11.7030588 L11.6689412,11.7030588 Z" id="Path"></path>
                    <path d="M18.7736471,10.8795294 L15.6861176,10.8795294 C15.4587063,10.8795294 15.2743529,11.0638828 15.2743529,11.2912941 C15.2743529,11.5187055 15.4587063,11.7030588 15.6861176,11.7030588 L18.7736471,11.7030588 C19.0010584,11.7030588 19.1854118,11.5187055 19.1854118,11.2912941 C19.1854118,11.0638828 19.0010584,10.8795294 18.7736471,10.8795294 Z" id="Path"></path>
                    <path d="M18.7736471,12.6771765 L11.6689412,12.6771765 C11.4415298,12.6771765 11.2571765,12.8615298 11.2571765,13.0889412 C11.2571765,13.3163525 11.4415298,13.5007059 11.6689412,13.5007059 L18.7736471,13.5007059 C19.0010584,13.5007059 19.1854118,13.3163525 19.1854118,13.0889412 C19.1854118,12.8615298 19.0010584,12.6771765 18.7736471,12.6771765 L18.7736471,12.6771765 Z" id="Path"></path>
                </g>
            </g>
        </g>
    </g>
</svg>