<?xml version="1.0" encoding="UTF-8"?>
<svg width="11px" height="15px" viewBox="0 0 11 15" version="1.1" xmlns="http://www.w3.org/2000/svg" xmlns:xlink="http://www.w3.org/1999/xlink">
    <title>4C524E2C-8B29-469C-B9A4-18905588CC59</title>
    <g id="Runner-Boy" stroke="none" stroke-width="1" fill="none" fill-rule="evenodd">
        <g id="6-RBHomePageAfterLogin@2x" transform="translate(-46.000000, -370.000000)">
            <g id="Group-2" transform="translate(25.000000, 203.000000)">
                <g id="Group-17" transform="translate(0.000000, 40.000000)">
                    <g id="Group-15" transform="translate(20.000000, 69.000000)">
                        <g id="Group-14" transform="translate(1.000000, 53.000000)">
                            <g id="Group-12" transform="translate(0.000000, 5.000000)">
                                <g id="placeholder" fill="#000000" fill-rule="nonzero">
                                    <path d="M5.5,0 C2.4673,0 0,2.36566406 0,5.2734375 C0,6.25587891 0.283830556,7.21464844 0.820997222,8.04644531 L5.18692778,14.7922559 C5.27055833,14.9214844 5.41789722,15 5.57635833,15 C5.57758056,15 5.57877222,15 5.57999444,15 C5.73983056,14.9987988 5.887475,14.9178516 5.96957778,14.7863672 L10.224225,7.97519531 C10.7317528,7.16097656 11,6.22672852 11,5.2734375 C11,2.36566406 8.5327,0 5.5,0 Z M9.43757222,7.52396484 L5.56942222,13.7163867 L1.60010278,7.58337891 C1.15298333,6.89103516 0.910555556,6.09228516 0.910555556,5.2734375 C0.910555556,2.85029297 2.97275,0.873046875 5.5,0.873046875 C8.02725,0.873046875 10.0863889,2.85029297 10.0863889,5.2734375 C10.0863889,6.06799805 9.85994167,6.84632812 9.43757222,7.52396484 Z" id="Shape"></path>
                                    <path d="M5.5,2.63671875 C3.98365,2.63671875 2.75,3.81955078 2.75,5.2734375 C2.75,6.71803711 3.963575,7.91015625 5.5,7.91015625 C7.05536944,7.91015625 8.25,6.7021582 8.25,5.2734375 C8.25,3.81955078 7.01635,2.63671875 5.5,2.63671875 Z M5.5,7.03710937 C4.48381389,7.03710937 3.66055556,6.24512695 3.66055556,5.2734375 C3.66055556,4.30417969 4.4891,3.50976562 5.5,3.50976562 C6.5109,3.50976562 7.33638889,4.30417969 7.33638889,5.2734375 C7.33638889,6.23094727 6.53228889,7.03710937 5.5,7.03710937 Z" id="Shape"></path>
                                </g>
                                <polygon id="Path-3" fill="#FFFFFF" points="9.2488704 7.5 10.5175832 8.53960031 10.7805686 7.61381906 9.71423876 6.52405622"></polygon>
                            </g>
                        </g>
                    </g>
                </g>
            </g>
        </g>
    </g>
</svg>