<?xml version="1.0" encoding="UTF-8"?>
<svg width="299px" height="74px" viewBox="0 0 299 74" version="1.1" xmlns="http://www.w3.org/2000/svg" xmlns:xlink="http://www.w3.org/1999/xlink">
    <title>79B25958-0557-47FF-AE5D-F73001F6AC7D</title>
    <defs>
        <linearGradient x1="11.7912947%" y1="78.5473602%" x2="86.4437943%" y2="7.68580537%" id="linearGradient-1">
            <stop stop-color="#0095DB" offset="0%"></stop>
            <stop stop-color="#00569E" offset="31.05%"></stop>
            <stop stop-color="#E73331" offset="65.33%"></stop>
            <stop stop-color="#BE1717" offset="99.97%"></stop>
        </linearGradient>
    </defs>
    <g id="Runner-Boy" stroke="none" stroke-width="1" fill="none" fill-rule="evenodd">
        <g id="1-RBSplashScreen@2x" transform="translate(-57.000000, -411.000000)">
            <g id="Group-2" transform="translate(57.000000, 411.000000)">
                <g id="Group-7" fill-rule="nonzero">
                    <g id="Group-Copy">
                        <path d="M47.7384743,48.4849223 C46.1657597,49.2956828 38.5412394,48.4849223 38.4594582,49.4485311 C38.2204056,52.2263829 43.4166546,53.1833462 44.819516,53.4823972 C50.6637234,54.7384115 55.3189586,51.0700522 62.1508308,44.2849168 C69.202883,37.2804772 74.6067304,26.8203369 73.9776445,17.3836157 C73.0969244,4.07916788 61.7796702,-2.68603086 51.7142968,0.995619534 C45.1277681,3.40131889 41.177109,7.30891895 39.2521064,9.69468157 C38.4783308,10.6516448 37.0943419,10.6516448 36.3268572,9.69468157 C34.3955637,7.30227337 30.4511955,3.40131889 23.8646668,0.995619534 C13.7992934,-2.68603086 2.57011126,4.43802911 0.418637697,17.0114633 C-2.17319595,32.1567363 7.4581082,49.5814427 24.0848469,60.4270265 C28.2431042,63.1384225 40.9317656,68.0428593 47.3232776,66.0558314 C51.4941167,64.7599436 62.0753405,55.9346156 60.9178226,54.7184747 C58.0177369,51.6681543 51.0977927,59.3105694 45.9141254,58.938417 C41.0512919,58.5862013 37.849245,57.6558204 36.1947492,55.0839816 C33.5022618,50.9105584 34.0244031,46.6175148 32.7473588,45.8931467 C29.6082205,44.7833351 31.7345306,53.2896754 29.0734975,51.5950529 C17.8443154,44.4377651 11.3081135,32.7548384 13.0443904,22.6203314 C14.4661244,14.3000673 21.901919,9.58170674 28.563938,12.020634 C32.4642702,13.4427877 34.961741,15.6624109 36.3646024,17.2440585 C37.138378,18.1212749 38.4342948,18.1212749 39.2080704,17.2440585 C40.6109318,15.6624109 43.1084025,13.4427877 47.0087347,12.020634 C53.6707537,9.58170674 61.1065483,14.3000673 62.5282823,22.6203314 C63.6354734,29.0997703 61.3581827,36.2038935 56.6463297,42.3576991 C54.6206733,41.5402929 50.1164188,38.7358589 48.8016294,40.8823807 C48.0089812,42.1782684 50.7140503,43.0953582 51.0474658,44.1121317 C51.5507345,45.6140324 48.9337374,47.8668835 47.7384743,48.4849223 Z" id="Path" fill="url(#linearGradient-1)"></path>
                        <path d="M47.0024439,62.3808266 C51.4500807,61.6298762 56.2437148,56.5925278 60.987022,54.8380952 C60.9744403,54.7915761 60.9555677,54.7517026 60.9241134,54.7184747 C58.0240277,51.6681543 51.1040835,59.3105694 45.9204162,58.938417 C41.0575827,58.5862013 37.8555358,57.6558204 36.2010401,55.0839816 C33.5085527,50.9105584 34.0306939,46.7105529 32.7536497,45.8931467 C29.6145114,44.7833351 31.7408215,53.2896754 29.0797884,51.5950529 C17.8506062,44.4377651 11.3144044,32.7548384 13.0506813,22.6203314 C14.4724153,14.3000673 21.9082099,9.58170674 28.5702289,12.020634 C30.3127966,12.6586095 31.7596941,13.4494333 32.9675389,14.273485 C28.0417968,10.4190496 23.1537998,7.17600738 16.8755232,8.8573387 C12.8053378,9.94721354 8.84209704,14.5127259 7.9425043,18.8722252 C3.07337993,42.5703576 30.4637772,65.1586783 47.0024439,62.3808266 Z" id="Path" fill="#FFFFFF" opacity="0.3"></path>
                        <path d="M73.9776445,17.3836157 C73.0969244,4.07916788 61.7796702,-2.68603086 51.7142968,0.995619534 C48.3549784,2.22505153 45.6813636,3.83992706 43.6179621,5.44815701 C43.6494164,5.68075226 52.148366,2.21840595 57.2187979,3.62726855 C67.2275535,6.41176587 69.5111351,16.2538674 68.1145645,25.6573607 C66.8878472,33.9377513 58.1372632,47.5545413 47.9460726,51.38904 C45.8889619,52.1599271 41.0701644,51.136508 39.2143612,49.0697332 C38.7551286,49.1494801 38.4783308,49.2691005 38.4594582,49.4485311 C38.2204056,52.2263829 43.4166546,53.1833462 44.819516,53.4823972 C50.6637234,54.7384115 55.3189586,51.0700522 62.1508308,44.2849168 C69.202883,37.2804772 74.6067304,26.8203369 73.9776445,17.3836157 Z" id="Path" fill="#FFFFFF" opacity="0.3"></path>
                    </g>
                    <g id="Group" transform="translate(89.044250, 18.510764)" fill="#E73331">
                        <polygon id="Path" points="0 27.5245257 0 1 7.42321287 1 7.42321287 27.5245257"></polygon>
                        <path d="M30.7873431,27.9981104 L30.7873431,16.7043205 C30.7873431,13.986129 29.0387575,12.5864082 26.0591274,12.5864082 C23.0794974,12.5864082 21.175147,13.9824358 21.175147,16.7043205 L21.175147,27.9981104 L13.3617832,27.9981104 L13.3617832,7.74832287 L21.175147,7.74832287 L21.175147,10.6179353 C22.9739793,8.91906565 25.2853281,7.3679238 29.244769,7.3679238 C35.1537824,7.3679238 38.6007069,10.2375362 38.6007069,14.8835754 L38.6007069,27.990724 L30.7873431,27.990724 L30.7873431,27.9981104 Z" id="Path"></path>
                        <path d="M56.3120158,29.4716952 C52.4744933,29.4716952 48.1766682,28.472831 44.5392772,26.2409939 L47.8664643,22.2494391 C50.8334146,23.9272187 53.9554668,24.8051267 56.5171507,24.8051267 C58.7686307,24.8051267 59.7943049,24.1652293 59.7943049,23.2092851 L59.7943049,23.1312489 C59.7943049,21.812436 57.1325552,21.3754329 54.115572,20.6574993 C50.2780495,19.7795914 45.9251882,18.3827423 45.9251882,14.2312131 L45.9251882,14.1531768 C45.9251882,9.80265519 50.4281482,7.3679238 55.9567823,7.3679238 C59.4390714,7.3679238 63.2215577,8.28484989 66.1935113,9.84167333 L63.226561,14.0322206 C60.5147785,12.7953459 57.8029959,12.0383941 55.8066837,12.0383941 C53.9104372,12.0383941 52.9397992,12.6782915 52.9397992,13.5132795 L52.9397992,13.5913157 C52.9397992,14.7891724 55.5515159,15.3471317 58.5184662,16.1470033 C62.3559887,17.1458675 66.8089158,18.5817347 66.8089158,22.4913515 L66.8089158,22.5693878 C66.8039125,27.3178943 62.2509197,29.4716952 56.3120158,29.4716952 Z" id="Path"></path>
                        <path d="M80.2844127,29.4716952 C75.8457599,29.4716952 72.8353172,28.0344431 72.8353172,23.2093824 L72.8353172,13.3311259 L69.778201,13.3311259 L69.778201,8.27412773 L72.8353172,8.27412773 L72.8353172,2.94716952 L80.0930512,2.94716952 L80.0930512,8.27412773 L86.1092693,8.27412773 L86.1092693,13.3311259 L80.0930512,13.3311259 L80.0930512,22.2360054 C80.0930512,23.5972124 80.8071562,24.2588046 82.4313951,24.2588046 C83.766258,24.2588046 84.9611004,23.9850423 86.0112548,23.5211673 L86.0112548,28.2663806 C84.4850304,29.0040179 82.720771,29.4716952 80.2844127,29.4716952 Z" id="Path"></path>
                        <path d="M106.790343,29.0989926 L106.790343,26.9322018 C104.89855,28.4632057 102.286074,29.4716952 98.4974825,29.4716952 C93.327582,29.4716952 89.0785544,27.3049044 89.0785544,23.3440255 L89.0785544,23.2709466 C89.0785544,18.8971716 93.6328714,16.8801927 100.134034,16.8801927 C102.896652,16.8801927 104.893545,17.2163558 106.840391,17.7023308 L106.840391,17.3661677 C106.840391,15.0093717 104.843498,13.7012585 100.954812,13.7012585 C97.9869986,13.7012585 95.8850062,14.1105006 93.3776295,14.7864809 L91.4307841,10.4492454 C94.4536494,9.4772954 97.4214626,8.84150856 102.080879,8.84150856 C110.578934,8.84150856 114.317478,12.0569822 114.317478,17.4757861 L114.317478,29.0989926 L106.790343,29.0989926 Z M106.940486,21.023769 C105.609224,20.5743334 103.867573,20.2747098 101.97578,20.2747098 C98.6476248,20.2747098 96.6006846,21.2466598 96.6006846,23.0407479 L96.6006846,23.1138268 C96.6006846,24.6448308 98.3423355,25.5437018 100.849712,25.5437018 C104.483156,25.5437018 106.940486,24.0857768 106.940486,22.0322584 L106.940486,21.023769 Z" id="Shape"></path>
                        <polygon id="Path" points="121.740691 27.9981104 121.740691 1.47358476 129.466892 1.47358476 129.466892 22.6932053 146.979615 22.6932053 146.979615 27.9981104"></polygon>
                        <path d="M152.918185,5.17816935 L152.918185,0 L160.341398,0 L160.341398,5.17816935 L152.918185,5.17816935 Z M153.104105,27.9981104 L153.104105,7.43916581 L160.155478,7.43916581 L160.155478,27.9981104 L153.104105,27.9981104 L153.104105,27.9981104 Z" id="Shape"></path>
                        <path d="M176.301629,4.86503842 C174.60551,4.86503842 173.634268,5.54837206 173.634268,7.06730391 L173.634268,7.86576441 L179.594374,7.86576441 L179.594374,12.5748245 L173.729023,12.5748245 L173.729023,27.9981104 L166.361802,27.9981104 L166.361802,12.5748245 L163.310683,12.5748245 L163.310683,7.82491294 L166.361802,7.82491294 L166.361802,6.53252106 C166.361802,2.05000092 169.218673,0 174.406524,0 C176.732765,0 178.282013,0.226539957 179.641751,0.568206778 L179.641751,5.35525604 C178.580493,5.05444068 177.561874,4.86503842 176.301629,4.86503842 Z" id="Path"></path>
                        <path d="M209.225345,20.4783612 L190.278977,20.4783612 C191.038818,23.2127685 193.477263,24.6380687 196.933795,24.6380687 C199.526195,24.6380687 201.40345,24.0028805 203.538951,22.4575144 L207.958943,25.5095157 C205.421172,27.96506 201.761022,29.4716952 196.83447,29.4716952 C188.655002,29.4716952 182.611037,24.9943937 182.611037,18.499208 L182.611037,18.421746 C182.611037,12.3603474 188.148442,7.3679238 196.074628,7.3679238 C205.167892,7.3679238 209.334603,12.8754694 209.334603,18.8981371 L209.334603,18.9755991 C209.329637,19.56431 209.275007,19.920635 209.225345,20.4783612 Z M196.069662,12.1976772 C192.871376,12.1976772 190.785538,13.9793024 190.174685,16.7137097 L201.805719,16.7137097 C201.353787,14.0180334 199.322577,12.1976772 196.069662,12.1976772 Z" id="Shape"></path>
                    </g>
                </g>
                <text id="for-Runner-boy" font-family="Roboto-Medium, Roboto" font-size="16" font-weight="400" fill="#007AC1">
                    <tspan x="89" y="70">for Runner boy</tspan>
                </text>
            </g>
        </g>
    </g>
</svg>