<?xml version="1.0" encoding="UTF-8"?>
<svg width="22px" height="22px" viewBox="0 0 22 22" version="1.1" xmlns="http://www.w3.org/2000/svg" xmlns:xlink="http://www.w3.org/1999/xlink">
    <title>BC6DD735-2A51-4AD2-A2F7-EB6EFF0863EF</title>
    <g id="Runner-Boy" stroke="none" stroke-width="1" fill="none" fill-rule="evenodd">
        <g id="21-RBViewProfile@2x" transform="translate(-179.000000, -212.000000)" fill="#212121" fill-rule="nonzero" stroke="#E3ECFF" stroke-width="0.3">
            <g id="Group-13" transform="translate(40.000000, 141.000000)">
                <g id="Group-8" transform="translate(140.000000, 9.000000)">
                    <g id="phone-call-(1)" transform="translate(0.000000, 63.000000)">
                        <path d="M15.8147455,12.407317 C15.4046992,11.9803615 14.9101073,11.7520883 14.3859244,11.7520883 C13.8659688,11.7520883 13.3671496,11.9761342 12.9401941,12.4030897 L11.6043732,13.7346833 C11.4944639,13.6755014 11.3845545,13.6205467 11.2788725,13.5655921 C11.1266904,13.489501 10.9829628,13.4176372 10.8603716,13.3415462 C9.60909631,12.5468172 8.4719576,11.5111333 7.38131898,10.171085 C6.85290879,9.50317457 6.49781715,8.94094614 6.23995298,8.37026314 C6.58659006,8.05321703 6.90786345,7.72348907 7.22068228,7.40644296 C7.33904616,7.28807908 7.45741004,7.16548792 7.57577392,7.04712403 C8.46350303,6.15939492 8.46350303,5.00957436 7.57577392,4.12184525 L6.42172608,2.96779741 C6.29068035,2.83675168 6.15540735,2.70147867 6.0285889,2.56620567 C5.77495201,2.30411421 5.50863328,2.0335682 5.23385998,1.77993131 C4.82381368,1.37411229 4.33344903,1.15852093 3.81772069,1.15852093 C3.30199235,1.15852093 2.80317313,1.37411229 2.38044499,1.77993131 C2.3762177,1.78415859 2.3762177,1.78415859 2.37199042,1.78838587 L0.934714719,3.23834342 C0.39362269,3.77943545 0.0850311417,4.43889136 0.017394638,5.20402931 C-0.0840601175,6.4383955 0.27948609,7.58821606 0.558486667,8.34067217 C1.24330627,10.1879942 2.26630839,11.9000432 3.792357,13.7346833 C5.64390629,15.9455515 7.87168363,17.6914188 10.4165071,18.9215577 C11.3887818,19.3823314 12.6865572,19.9276507 14.1365148,20.0206509 C14.2252877,20.0248782 14.3182879,20.0291055 14.4028335,20.0291055 C15.3793355,20.0291055 16.1994281,19.6782411 16.8419749,18.9807397 C16.8462022,18.9722851 16.8546568,18.9680578 16.8588841,18.9596032 C17.0787027,18.6932845 17.3323396,18.4523295 17.5986583,18.1944653 C17.7804314,18.0211468 17.9664318,17.8393737 18.1482049,17.649146 C18.5667058,17.213736 18.7865244,16.7064622 18.7865244,16.1865066 C18.7865244,15.6623237 18.5624785,15.1592772 18.1355231,14.736549 L15.8147455,12.407317 Z M17.3281123,16.8586443 C17.323885,16.8586443 17.323885,16.8628716 17.3281123,16.8586443 C17.1632483,17.0361902 16.9941571,17.1968269 16.812384,17.3743727 C16.5376107,17.6364641 16.2586101,17.9112374 15.9965186,18.219829 C15.5695632,18.6763754 15.0665167,18.8919667 14.4070608,18.8919667 C14.3436516,18.8919667 14.2760151,18.8919667 14.2126058,18.8877395 C12.9571032,18.8074211 11.7903736,18.3170565 10.9153263,17.8985556 C8.52268497,16.7402805 6.42172608,15.095868 4.67585883,13.0118182 C3.23435584,11.2744055 2.27053567,9.66803855 1.63221616,7.94330771 C1.23907899,6.89071462 1.09535142,6.07062201 1.15876064,5.2970295 C1.20103345,4.80243757 1.39126112,4.39239127 1.74212548,4.0415269 L3.18362847,2.60002392 C3.39076526,2.40556897 3.6105839,2.29988693 3.82617525,2.29988693 C4.09249398,2.29988693 4.30808534,2.46052363 4.44335835,2.59579664 C4.44758563,2.60002392 4.45181291,2.6042512 4.45604019,2.60847848 C4.71390436,2.84943353 4.95908669,3.09884313 5.21695086,3.36516187 C5.34799658,3.50043487 5.48326959,3.63570788 5.6185426,3.77520817 L6.77259044,4.92925601 C7.22068228,5.37734785 7.22068228,5.79162144 6.77259044,6.23971327 C6.64999928,6.36230444 6.5316354,6.4848956 6.40904423,6.60325948 C6.05395259,6.96680569 5.71577007,7.3049882 5.34799658,7.63471616 C5.33954202,7.64317072 5.33108746,7.647398 5.32686018,7.65585257 C4.96331397,8.01939878 5.03095047,8.37449042 5.10704154,8.61544546 C5.11126882,8.62812731 5.1154961,8.64080915 5.11972338,8.653491 C5.41986037,9.38058341 5.84258852,10.065403 6.4851353,10.8812683 L6.48936258,10.8854956 C7.65609227,12.3227713 8.88623118,13.4430009 10.2431885,14.3011391 C10.4165071,14.4110484 10.5940529,14.4998213 10.7631442,14.5843669 C10.9153263,14.660458 11.0590539,14.7323218 11.181645,14.8084128 C11.1985542,14.8168674 11.2154633,14.8295492 11.2323724,14.8380038 C11.3761,14.9098676 11.511373,14.9436858 11.6508733,14.9436858 C12.0017376,14.9436858 12.2215563,14.7238672 12.2934201,14.6520034 L13.7391503,13.2062732 C13.8828779,13.0625456 14.1111511,12.889227 14.3774698,12.889227 C14.6395613,12.889227 14.8551526,13.054091 14.9861984,13.1978186 C14.9904256,13.2020459 14.9904256,13.2020459 14.9946529,13.2062732 L17.323885,15.5355052 C17.759295,15.966688 17.759295,16.4105525 17.3281123,16.8586443 Z" id="Shape"></path>
                        <path d="M10.8096443,4.76439204 C11.917192,4.95039242 12.923285,5.47457532 13.7264685,6.27775881 C14.529652,7.08094229 15.0496076,8.08703528 15.2398352,9.19458303 C15.2863353,9.4735836 15.5272904,9.66803855 15.8020637,9.66803855 C15.8358819,9.66803855 15.8654729,9.66381127 15.8992912,9.65958399 C16.21211,9.60885661 16.4192468,9.31294691 16.3685194,9.00012808 C16.1402462,7.66007985 15.506154,6.4383955 14.5381065,5.47034804 C13.5700591,4.50230058 12.3483747,3.86820836 11.0083265,3.63993516 C10.6955077,3.58920778 10.4038252,3.79634458 10.3488706,4.10493612 C10.2939159,4.41352767 10.4968254,4.71366466 10.8096443,4.76439204 Z" id="Path"></path>
                        <path d="M19.9912996,8.8352641 C19.6150716,6.62862317 18.5751603,4.62066447 16.9772479,3.02275207 C15.3793355,1.42483967 13.3713768,0.384928423 11.1647359,0.00870037135 C10.8561444,-0.0462542879 10.5644619,0.165109786 10.5095073,0.473701334 C10.4587799,0.786520164 10.6659167,1.07820259 10.9787355,1.13315724 C12.9486487,1.46711248 14.7452433,2.40134169 16.1740645,3.82593555 C17.6028856,5.25475669 18.5328875,7.05135132 18.8668428,9.02126449 C18.9133429,9.30026506 19.1542979,9.49472001 19.4290712,9.49472001 C19.4628894,9.49472001 19.4924804,9.49049273 19.5262987,9.48626545 C19.8348902,9.43976535 20.0462543,9.14385565 19.9912996,8.8352641 Z" id="Path"></path>
                    </g>
                </g>
            </g>
        </g>
    </g>
</svg>