<?xml version="1.0" encoding="UTF-8"?>
<svg width="150px" height="34px" viewBox="0 0 150 34" version="1.1" xmlns="http://www.w3.org/2000/svg" xmlns:xlink="http://www.w3.org/1999/xlink">
    <title>7241A708-44D7-4453-BC84-B7CFE4AD4C03</title>
    <defs>
        <linearGradient x1="11.7912947%" y1="78.5473602%" x2="86.4437943%" y2="7.68580537%" id="linearGradient-1">
            <stop stop-color="#0095DB" offset="0%"></stop>
            <stop stop-color="#00569E" offset="31.05%"></stop>
            <stop stop-color="#E73331" offset="65.33%"></stop>
            <stop stop-color="#BE1717" offset="99.97%"></stop>
        </linearGradient>
    </defs>
    <g id="Runner-Boy" stroke="none" stroke-width="1" fill="none" fill-rule="evenodd">
        <g id="2-PBLogin@2x" transform="translate(-30.000000, -30.000000)" fill-rule="nonzero">
            <g id="Group-7-Copy" transform="translate(30.000000, 30.000000)">
                <g id="Group-Copy">
                    <path d="M23.8692371,24.2424611 C23.0828799,24.6478414 19.2706197,24.2424611 19.2297291,24.7242656 C19.1102028,26.1131914 21.7083273,26.5916731 22.409758,26.7411986 C25.3318617,27.3692057 27.6594793,25.5350261 31.0754154,22.1424584 C34.6014415,18.6402386 37.3033652,13.4101685 36.9888223,8.69180785 C36.5484622,2.03958394 30.8898351,-1.34301543 25.8571484,0.497809767 C22.563884,1.70065944 20.5885545,3.65445947 19.6260532,4.84734078 C19.2391654,5.32582242 18.547171,5.32582242 18.1634286,4.84734078 C17.1977819,3.65113668 15.2255978,1.70065944 11.9323334,0.497809767 C6.89964672,-1.34301543 1.28505563,2.21901455 0.209318848,8.50573165 C-1.08659797,16.0783682 3.7290541,24.7907213 12.0424234,30.2135133 C14.1215521,31.5692112 20.4658828,34.0214296 23.6616388,33.0279157 C25.7470584,32.3799718 31.0376703,27.9673078 30.4589113,27.3592374 C29.0088684,25.8340771 25.5488963,29.6552847 22.9570627,29.4692085 C20.5256459,29.2931007 18.9246225,28.8279102 18.0973746,27.5419908 C16.7511309,25.4552792 17.0122015,23.3087574 16.3736794,22.9465734 C14.8041102,22.3916676 15.8672653,26.6448377 14.5367488,25.7975265 C8.92215768,22.2188825 5.65405676,16.3774192 6.52219522,11.3101657 C7.23306221,7.15003367 10.9509595,4.79085337 14.281969,6.01031699 C16.2321351,6.72139387 17.4808705,7.83120545 18.1823012,8.62202927 C18.569189,9.06063744 19.2171474,9.06063744 19.6040352,8.62202927 C20.3054659,7.83120545 21.5542013,6.72139387 23.5043674,6.01031699 C26.8353769,4.79085337 30.5532742,7.15003367 31.2641412,11.3101657 C31.8177367,14.5498851 30.6790913,18.1019468 28.3231649,21.1788495 C27.3103367,20.7701465 25.0582094,19.3679294 24.4008147,20.4411903 C24.0044906,21.0891342 25.3570252,21.5476791 25.5237329,22.0560659 C25.7753672,22.8070162 24.4668687,23.9334417 23.8692371,24.2424611 Z" id="Path" fill="url(#linearGradient-1)"></path>
                    <path d="M23.5012219,31.1904133 C25.7250404,30.8149381 28.1218574,28.2962639 30.493511,27.4190476 C30.4872201,27.3957881 30.4777839,27.3758513 30.4620567,27.3592374 C29.0120139,25.8340771 25.5520418,29.6552847 22.9602081,29.4692085 C20.5287914,29.2931007 18.9277679,28.8279102 18.10052,27.5419908 C16.7542763,25.4552792 17.015347,23.3552764 16.3768248,22.9465734 C14.8072557,22.3916676 15.8704107,26.6448377 14.5398942,25.7975265 C8.92530311,22.2188825 5.65720219,16.3774192 6.52534064,11.3101657 C7.23620764,7.15003367 10.9541049,4.79085337 14.2851144,6.01031699 C15.1563983,6.32930475 15.879847,6.72471666 16.4837694,7.13674252 C14.0208984,5.2095248 11.5768999,3.58800369 8.43776159,4.42866935 C6.40266891,4.97360677 4.42104852,7.25636293 3.97125215,9.43611262 C1.53668996,21.2851788 15.2318886,32.5793391 23.5012219,31.1904133 Z" id="Path" fill="#FFFFFF" opacity="0.3"></path>
                    <path d="M36.9888223,8.69180785 C36.5484622,2.03958394 30.8898351,-1.34301543 25.8571484,0.497809767 C24.1774892,1.11252576 22.8406818,1.91996353 21.808981,2.72407851 C21.8247082,2.84037613 26.074183,1.10920297 28.6093989,1.81363428 C33.6137768,3.20588294 34.7555675,8.12693369 34.0572823,12.8286804 C33.4439236,16.9688757 29.0686316,23.7772707 23.9730363,25.69452 C22.944481,26.0799635 20.5350822,25.568254 19.6071806,24.5348666 C19.3775643,24.5747401 19.2391654,24.6345503 19.2297291,24.7242656 C19.1102028,26.1131914 21.7083273,26.5916731 22.409758,26.7411986 C25.3318617,27.3692057 27.6594793,25.5350261 31.0754154,22.1424584 C34.6014415,18.6402386 37.3033652,13.4101685 36.9888223,8.69180785 Z" id="Path" fill="#FFFFFF" opacity="0.3"></path>
                </g>
                <g id="Group" transform="translate(44.522125, 9.255382)" fill="#E73331">
                    <polygon id="Path" points="0 13.9990552 0 0.73679238 3.71160643 0.73679238 3.71160643 13.9990552"></polygon>
                    <path d="M15.3936715,13.9990552 L15.3936715,8.35216024 C15.3936715,6.99306452 14.5193787,6.29320409 13.0295637,6.29320409 C11.5397487,6.29320409 10.5875735,6.99121792 10.5875735,8.35216024 L10.5875735,13.9990552 L6.68089158,13.9990552 L6.68089158,3.87416144 L10.5875735,3.87416144 L10.5875735,5.30896765 C11.4869896,4.45953283 12.642664,3.6839619 14.6223845,3.6839619 C17.5768912,3.6839619 19.3003535,5.11876811 19.3003535,7.4417877 L19.3003535,13.995362 L15.3936715,13.995362 L15.3936715,13.9990552 Z" id="Path"></path>
                    <path d="M28.1560079,14.7358476 C26.2372466,14.7358476 24.0883341,14.2364155 22.2696386,13.120497 L23.9332321,11.1247195 C25.4167073,11.9636094 26.9777334,12.4025633 28.2585753,12.4025633 C29.3843153,12.4025633 29.8971524,12.0826147 29.8971524,11.6046426 L29.8971524,11.5656244 C29.8971524,10.906218 28.5662776,10.6877165 27.057786,10.3287497 C25.1390247,9.88979569 22.9625941,9.19137114 22.9625941,7.11560655 L22.9625941,7.07658842 C22.9625941,4.9013276 25.2140741,3.6839619 27.9783912,3.6839619 C29.7195357,3.6839619 31.6107789,4.14242494 33.0967556,4.92083666 L31.6132805,7.01611032 C30.2573892,6.39767293 28.901498,6.01919706 27.9033418,6.01919706 C26.9552186,6.01919706 26.4698996,6.33914574 26.4698996,6.75663974 L26.4698996,6.79565787 C26.4698996,7.39458619 27.775758,7.67356583 29.2592331,8.07350167 C31.1779944,8.57293376 33.4044579,9.29086737 33.4044579,11.2456758 L33.4044579,11.2846939 C33.4019563,13.6589472 31.1254598,14.7358476 28.1560079,14.7358476 Z" id="Path"></path>
                    <path d="M40.1422063,14.7358476 C37.92288,14.7358476 36.4176586,14.0172215 36.4176586,11.6046912 L36.4176586,6.66556294 L34.8891005,6.66556294 L34.8891005,4.13706387 L36.4176586,4.13706387 L36.4176586,1.47358476 L40.0465256,1.47358476 L40.0465256,4.13706387 L43.0546346,4.13706387 L43.0546346,6.66556294 L40.0465256,6.66556294 L40.0465256,11.1180027 C40.0465256,11.7986062 40.4035781,12.1294023 41.2156975,12.1294023 C41.883129,12.1294023 42.4805502,11.9925212 43.0056274,11.7605836 L43.0056274,14.1331903 C42.2425152,14.502009 41.3603855,14.7358476 40.1422063,14.7358476 Z" id="Path"></path>
                    <path d="M53.3951716,14.5494963 L53.3951716,13.4661009 C52.449275,14.2316029 51.1430369,14.7358476 49.2487413,14.7358476 C46.663791,14.7358476 44.5392772,13.6524522 44.5392772,11.6720128 L44.5392772,11.6354733 C44.5392772,9.44858581 46.8164357,8.44009635 50.0670169,8.44009635 C51.4483262,8.44009635 52.4467726,8.60817792 53.4201953,8.85116542 L53.4201953,8.68308384 C53.4201953,7.50468583 52.4217489,6.85062926 50.4774059,6.85062926 C48.9934993,6.85062926 47.9425031,7.05525031 46.6888147,7.39324043 L45.715392,5.22462269 C47.2268247,4.7386477 48.7107313,4.42075428 51.0404396,4.42075428 C55.2894672,4.42075428 57.1587391,6.02849111 57.1587391,8.73789305 L57.1587391,14.5494963 L53.3951716,14.5494963 Z M53.4702428,10.5118845 C52.8046118,10.2871667 51.9337864,10.1373549 50.9878898,10.1373549 C49.3238124,10.1373549 48.3003423,10.6233299 48.3003423,11.5203739 L48.3003423,11.5569134 C48.3003423,12.3224154 49.1711677,12.7718509 50.4248561,12.7718509 C52.2415781,12.7718509 53.4702428,12.0428884 53.4702428,11.0161292 L53.4702428,10.5118845 Z" id="Shape"></path>
                    <polygon id="Path" points="60.8703455 13.9990552 60.8703455 0.73679238 64.7334461 0.73679238 64.7334461 11.3466027 73.4898074 11.3466027 73.4898074 13.9990552"></polygon>
                    <path d="M76.4590925,2.58908467 L76.4590925,0 L80.170699,0 L80.170699,2.58908467 L76.4590925,2.58908467 Z M76.5520527,13.9990552 L76.5520527,3.71958291 L80.0777388,3.71958291 L80.0777388,13.9990552 L76.5520527,13.9990552 L76.5520527,13.9990552 Z" id="Shape"></path>
                    <path d="M88.1508143,2.43251921 C87.3027548,2.43251921 86.8171341,2.77418603 86.8171341,3.53365195 L86.8171341,3.93288221 L89.7971869,3.93288221 L89.7971869,6.28741225 L86.8645117,6.28741225 L86.8645117,13.9990552 L83.1809012,13.9990552 L83.1809012,6.28741225 L81.6553415,6.28741225 L81.6553415,3.91245647 L83.1809012,3.91245647 L83.1809012,3.26626053 C83.1809012,1.02500046 84.6093366,0 87.2032618,0 C88.3663825,0 89.1410067,0.113269979 89.8208757,0.284103389 L89.8208757,2.67762802 C89.2902463,2.52722034 88.7809368,2.43251921 88.1508143,2.43251921 Z" id="Path"></path>
                    <path d="M104.612672,10.2391806 L95.1394884,10.2391806 C95.519409,11.6063843 96.7386314,12.3190343 98.4668977,12.3190343 C99.7630974,12.3190343 100.701725,12.0014403 101.769476,11.2287572 L103.979471,12.7547579 C102.710586,13.98253 100.880511,14.7358476 98.4172349,14.7358476 C94.3275012,14.7358476 91.3055183,12.4971968 91.3055183,9.24960401 L91.3055183,9.21087302 C91.3055183,6.18017369 94.0742208,3.6839619 98.0373142,3.6839619 C102.583946,3.6839619 104.667301,6.43773472 104.667301,9.44906856 L104.667301,9.48779954 C104.664818,9.78215501 104.637504,9.96031752 104.612672,10.2391806 Z M98.0348311,6.09883862 C96.4356881,6.09883862 95.3927688,6.98965121 95.0873424,8.35685487 L100.902859,8.35685487 C100.676893,7.0090167 99.6612886,6.09883862 98.0348311,6.09883862 Z" id="Shape"></path>
                </g>
            </g>
        </g>
    </g>
</svg>